<?xml version="1.0" encoding="utf-8"?>
<!-- Generator: Adobe Illustrator 23.0.0, SVG Export Plug-In . SVG Version: 6.00 Build 0)  -->
<svg version="1.1" id="logo-light" xmlns="http://www.w3.org/2000/svg" xmlns:xlink="http://www.w3.org/1999/xlink" x="0px" y="0px"
	 viewBox="0 0 102.1 44.5" style="enable-background:new 0 0 102.1 44.5;" xml:space="preserve">
<style type="text/css">
	.st0{fill:#FDCC39;}
	.st1{fill:#BD5317;}
	.st2{fill:#118537;}
</style>
<g>
	<path class="st0" d="M69.3,44.5H28.6c-3.2-1.7-1.8-7-1.8-7c0-0.6,0.5-1,1-1H70c0.6,0,1,0.5,1,1C71,37.5,72.6,42,69.3,44.5z"/>
	<g>
		<path class="st1" d="M44.3,24.6c-0.4,0-0.6-0.1-0.9-0.2c-0.4-0.2-0.8-0.3-1.1-0.7c-0.2-0.3-0.4-0.7-0.4-1.1c0-0.1,0-0.2,0-0.4
			c0-0.1,0.1-0.3,0.1-0.4l0.2-0.9c0,0,0-0.1,0.1-0.1l0.9,0c0.3,0,0.5,0,0.7-0.1c0,0,0.1,0,0.1-0.1c0-0.2,0-0.2,0-0.4l-0.1-0.6
			l0.2-0.2c0,0,0.1-0.1-0.1-0.1l-16.2,0c-0.6,0-1,0.5-1,1v5c0,0.6,0.5,1,1,1h16.9c-0.1-0.5-0.2-0.9-0.3-1.6
			C44.4,24.7,44.4,24.6,44.3,24.6z"/>
		<path class="st1" d="M51.7,19.5c0,0.8-0.3,1.1-0.6,1.5l0.2,0.2c0.2,0.2,0.9,0.8,0.7,2.1c0,0.3,0.2,1.2,0.4,1.6
			c0.1,0.3,0.2,0.6,0.3,0.7c0.1,0.2,4.4-0.1,4.4-0.1s0.3,0,0.3,0.5l0,0.3h12.8c0.6,0,1-0.5,1-1v-5c0-0.6-0.5-1-1-1H51.9
			C51.9,19.4,51.8,19.3,51.7,19.5z"/>
	</g>
	<path class="st2" d="M69.6,31h-3.7c-1.9-0.3-2-1-4-1.4c-1.9-0.4-3.5,1.1-3.7,1.4h0c0,0,0.1-1.6-0.1-1.8c-0.2-0.2-1.7,0-1.7,0
		s0.1-2.2-0.1-2.3c-0.1-0.1-2.4-0.2-2.6,0c-0.2,0.2,0.1,2.4,0.1,2.4l-3,0.2c0,0-0.2,0.7-0.5,0.8c-0.3,0.1-0.9-0.1-0.9-0.1
		s0.2-1.8,0.2-1.9c0-0.1,0.1-2.3,0.1-2.3s-0.6-1.6-0.4-1.8c0.2-0.2,0.4-0.5,0.4-0.5s0.3,1,1,1.8c0.7,0.8,1.1,1.2,1.1,0.7
		c-0.1-0.5-0.8-2.4-0.8-3.1c0.1-0.7-0.1-0.9-0.2-0.9c-0.1-0.1-0.7,0-0.7,0l-0.1-0.5c0,0-0.8-0.5-0.2-1c0.5-0.5,0.9-0.6,0.9-1.2
		c0-0.6-0.3-1.3-1.4-1.2c-1.1,0.1-1.1,1.1-0.9,1.6c0,0-0.1,1.1-0.2,1.1c-0.1,0-1.1,0.2-1.2,0.8c0,0,0-0.9-0.8-0.8
		c0,0-0.2-0.2,0.2-0.6c0,0-0.1-0.8-0.7-0.3c-0.1,0.1-0.1,0.1-0.1,0.3c0,0,0.1,1.2,0,1.4c-0.2,0.2-1.1,0.6-2,0.6c0,0-0.2,0.8,0.2,0.8
		c0.4,0.1,0.9,0.4,1.4,0.4c0.5,0,0.8-0.3,0.9,0c0,0.2,0,0.7,0,1.1c0,0.4,0.2,2.2,0.6,2.4c0,0,0.1,2.6-0.2,2.8
		c-0.2,0.2-0.5,0.2-1,0.2c-0.5,0-0.6-0.2-1-0.3c-0.4-0.1-1.3-1.1-2-1.1c-0.7,0-1.1-0.3-2,0.3c-0.9,0.6-1.3,0.9-2,1.2
		c-0.8,0.3-1.1,0.4-2.1,0.5c-0.8,0.1-1.8,0.3-2.4,0.4h-5.9c-0.6,0-1,0.5-1,1v1.3c0,0.6,0.5,1,1,1h42c0.6,0,1-0.5,1-1V32
		C70.6,31.4,70.2,31,69.6,31z"/>
	<path class="st0" d="M49.6,0C30.7,0,26.8,13.7,26.8,15c0,1.2-0.3,2.1,0.8,2.1h42.2c0,0,1,0.2,1-1.4S68.6,0,49.6,0z M33.6,9.7
		c-0.9-0.8,1.6-2.6,1.6-2.6S34.5,10.5,33.6,9.7z M40.7,4.4c-0.4-1.1,2.6-1.6,2.6-1.6S41.2,5.5,40.7,4.4z M43.6,9.7
		c-0.9-0.8,1.6-2.6,1.6-2.6S44.5,10.5,43.6,9.7z M49.9,5.6c-1.2,0.3-0.3-3-0.3-3S51.1,5.3,49.9,5.6z M54.5,9.7
		c-0.9,0.8-1.6-2.6-1.6-2.6S55.5,8.9,54.5,9.7z M58,4.4c-0.4,1.1-2.6-1.6-2.6-1.6S58.4,3.2,58,4.4z M64.8,9.7
		c-0.9,0.8-1.6-2.6-1.6-2.6S65.7,8.9,64.8,9.7z"/>
</g>
<path class="st1" d="M42.4,21.6"/>
</svg>
