<svg id="Capa_3" data-name="Capa 3" xmlns="http://www.w3.org/2000/svg" viewBox="0 0 102.04 35.1"><defs><style>.cls-1{fill:#fff;}</style></defs><title>logo-light1</title><path class="cls-1" d="M46.74,28.84a5.94,5.94,0,0,1,.7,2.6h-2.2a2.2,2.2,0,0,0-.1-.8,5.75,5.75,0,0,1-3.4,1.1,5.44,5.44,0,0,1-4-1.7A5.61,5.61,0,0,1,36,26a5.44,5.44,0,0,1,1.7-4,5.61,5.61,0,0,1,4-1.7,5.44,5.44,0,0,1,4,1.7,5.61,5.61,0,0,1,1.7,4A5.07,5.07,0,0,1,46.74,28.84Zm-3.3-4.4a2.4,2.4,0,0,0-4.1,1.7,2.39,2.39,0,0,0,2.4,2.4,4.25,4.25,0,0,0,1.1-.2,2.77,2.77,0,0,0-.9-.1V26a5.45,5.45,0,0,1,2.2.5v-.3A2.27,2.27,0,0,0,43.44,24.44Z" transform="translate(0 -3.34)"/><path class="cls-1" d="M56.74,27.54a4.4,4.4,0,0,1-8.8,0v-6.7h3.3v6.7a1,1,0,0,0,1.1,1,.94.94,0,0,0,1-1v-6.7h3.3v6.7Z" transform="translate(0 -3.34)"/><path class="cls-1" d="M60.54,31.44h-3.3V20.74h3.3Z" transform="translate(0 -3.34)"/><path class="cls-1" d="M68.94,24.14h-2.3v7.4h-3.3v-7.4H61v-3.3h8v3.3Z" transform="translate(0 -3.34)"/><path class="cls-1" d="M77.34,29a4.85,4.85,0,0,1-3.5,1.5,4.54,4.54,0,0,1-3.5-1.5,4.85,4.85,0,0,1-1.5-3.5,4.54,4.54,0,0,1,1.5-3.5,4.85,4.85,0,0,1,3.5-1.5,4.54,4.54,0,0,1,3.5,1.5,4.85,4.85,0,0,1,1.5,3.5A4.69,4.69,0,0,1,77.34,29Zm-3.6-5.2a1.75,1.75,0,0,0-1.7,1.7,1.69,1.69,0,0,0,1.7,1.7,1.75,1.75,0,0,0,1.7-1.7A1.63,1.63,0,0,0,73.74,23.84Z" transform="translate(0 -3.34)"/><path class="cls-1" d="M44.34,13a2.51,2.51,0,0,1,2.6,2.8c0,2.9-3.4,3.2-5.2,3.2a29.26,29.26,0,0,1-4.4-.5s-.2-7.9-.3-9.6c0,0,1.1-1,4-1s5,.5,5,2.7a2.14,2.14,0,0,1-1.7,2.4Zm-3.6-.5h.2c.5,0,1.7-.1,1.7-1.2v-.1c-.1-.8-.6-.9-1.1-.9a3.3,3.3,0,0,0-1.1.2Zm.7,4.4c.8,0,2-.2,2-1.4,0-1-.8-1.2-1.5-1.2a6.27,6.27,0,0,0-1.1.1v2.5Z" transform="translate(0 -3.34)"/><path class="cls-1" d="M52.14,8.64a26,26,0,0,0-.2,3c0,1.5.2,3.1,1.3,3.1s1.3-1.4,1.3-2.9a13.85,13.85,0,0,0-.3-3.1h.2l3.5-.3a20.15,20.15,0,0,1,.4,3.9c0,3-.8,6.6-4.9,6.6-4.6,0-5.4-4.6-5.4-7.6a14.06,14.06,0,0,1,.2-2.5h3.9Z" transform="translate(0 -3.34)"/><path class="cls-1" d="M68.74,16.34a4.6,4.6,0,0,0,1.3-.2v3.3l-1.6.1a3.77,3.77,0,0,1-3.8-3.3,2.2,2.2,0,0,1-.8-.1l.1,2.7h-4.1l-.3-10.3a16.09,16.09,0,0,1,5-.5c3.6,0,5,1.1,5,4a3.75,3.75,0,0,1-2.1,3.8A1.9,1.9,0,0,0,68.74,16.34ZM64.14,14a1.64,1.64,0,0,0,1.8-1.8c0-1.5-.8-1.9-1.5-1.9-.3,0-.6.1-.8.1l.2,3.6Z" transform="translate(0 -3.34)"/><path class="cls-1" d="M80,14.34v5.1h-3.5v-.8c-2.6-.1-5.9-1-5.9-4.9,0-4.5,3.6-5.4,6.3-5.4a17.21,17.21,0,0,1,2.9.3v3.5a16.73,16.73,0,0,0-2.4-.2c-1.4,0-2.9.3-2.9,1.7a1.59,1.59,0,0,0,1.6,1.8h.1l-.1-1.1a6.62,6.62,0,0,1,1.5-.1C78.84,14.24,80.14,14.34,80,14.34Z" transform="translate(0 -3.34)"/><path class="cls-1" d="M85.74,12.44l3.6-.1-.1,2.7h-3.5v1.2h4.4l.2,2.5h-8.4l-.4-10.4h8.4v2.8h-4.2Z" transform="translate(0 -3.34)"/><path class="cls-1" d="M100.74,16.34a4.6,4.6,0,0,0,1.3-.2v3.3l-1.6.1a3.77,3.77,0,0,1-3.8-3.3,2.2,2.2,0,0,1-.8-.1l.1,2.7h-4.1l-.3-10.3a16.09,16.09,0,0,1,5-.5c3.6,0,5,1.1,5,4a3.75,3.75,0,0,1-2.1,3.8A1.9,1.9,0,0,0,100.74,16.34ZM96.14,14a1.64,1.64,0,0,0,1.8-1.8c0-1.5-.8-1.9-1.5-1.9-.3,0-.6.1-.8.1l.2,3.6Z" transform="translate(0 -3.34)"/><path class="cls-1" d="M33.14,37.74H1.64c-2.5-1.3-1.4-5.4-1.4-5.4a.86.86,0,0,1,.8-.8h32.7a.86.86,0,0,1,.8.8S35.74,35.74,33.14,37.74Z" transform="translate(0 -3.34)"/><path class="cls-1" d="M13.84,22.34a1.45,1.45,0,0,1-.7-.2,1.37,1.37,0,0,1-.8-.5,1.14,1.14,0,0,1-.3-.8v-.6l.1-.7a.1.1,0,0,1,.1-.1h.7a.75.75,0,0,0,.5-.1.1.1,0,0,0,.1-.1v-.7l.2-.2s.1-.1-.1-.1H1a.86.86,0,0,0-.8.8v3.8a.86.86,0,0,0,.8.8H14a4.44,4.44,0,0,1-.2-1.3C13.94,22.44,13.94,22.34,13.84,22.34Z" transform="translate(0 -3.34)"/><path class="cls-1" d="M19.54,18.44a1.17,1.17,0,0,1-.5,1.1l.2.1a1.6,1.6,0,0,1,.6,1.6,11.15,11.15,0,0,0,.3,1.3c.1.2.1.4.2.6s3.4-.1,3.4-.1.2,0,.2.4v.3h9.9a.86.86,0,0,0,.8-.8v-3.8a.86.86,0,0,0-.8-.8H19.74C19.74,18.24,19.64,18.24,19.54,18.44Z" transform="translate(0 -3.34)"/><path class="cls-1" d="M33.44,27.24h-2.9c-1.5-.3-1.6-.7-3.1-1.1a3.43,3.43,0,0,0-2.9,1.1h0s.1-1.3-.1-1.4a5.63,5.63,0,0,0-1.3,0s.1-1.7-.1-1.8a6.7,6.7,0,0,0-2,0,9.72,9.72,0,0,0,.1,1.8l-2.3.1s-.2.6-.4.6-.7-.1-.7-.1.2-1.4.2-1.5.1-1.8.1-1.8-.5-1.2-.3-1.4a1.73,1.73,0,0,0,.3-.4,5.57,5.57,0,0,0,.8,1.4c.5.6.9.9.8.5a14,14,0,0,1-.6-2.4c.1-.6-.1-.7-.2-.7s-.5,0-.5,0L18,20s-.6-.4-.2-.8.7-.5.7-.9-.2-1-1.1-.9a.8.8,0,0,0-.7,1.2s-.1.8-.2.8a1.22,1.22,0,0,0-1,.6s0-.7-.6-.6c0,0-.1-.2.2-.5,0,0-.1-.6-.6-.2-.1,0-.1.1-.1.2a4,4,0,0,1,0,1.1,3.2,3.2,0,0,1-1.5.5s-.1.6.2.6a3.54,3.54,0,0,0,1.1.3c.4,0,.6-.2.7,0v.8c0,.3.1,1.7.5,1.9a8.47,8.47,0,0,1-.1,2.2,1.72,1.72,0,0,1-.8.1,1.88,1.88,0,0,1-.8-.2c-.3-.1-1-.9-1.6-.9s-.8-.2-1.6.3a5.28,5.28,0,0,1-1.6.9,6.22,6.22,0,0,1-1.6.4,14.81,14.81,0,0,1-1.9.3H.94a.86.86,0,0,0-.8.8v1a.86.86,0,0,0,.8.8h32.5a.86.86,0,0,0,.8-.8V28A.86.86,0,0,0,33.44,27.24Z" transform="translate(0 -3.34)"/><path class="cls-1" d="M17.94,3.34C3.34,3.34.34,13.94.34,14.94s-.2,1.6.6,1.6h32.6s.8.2.8-1.1S32.64,3.34,17.94,3.34Zm-12.4,7.5c-.7-.6,1.3-2,1.3-2S6.24,11.44,5.54,10.84ZM11,6.74c-.3-.9,2-1.2,2-1.2S11.44,7.54,11,6.74Zm2.3,4.1c-.7-.6,1.3-2,1.3-2S14,11.44,13.34,10.84Zm4.8-3.2c-.9.2-.2-2.3-.2-2.3S19,7.44,18.14,7.64Zm3.6,3.2c-.7.6-1.3-2-1.3-2S22.44,10.14,21.74,10.84Zm2.7-4.1c-.3.9-2-1.2-2-1.2S24.74,5.84,24.44,6.74Zm5.2,4.1c-.7.6-1.3-2-1.3-2S30.34,10.14,29.64,10.84Z" transform="translate(0 -3.34)"/><path class="cls-1" d="M38.14,38.24v-2.5h1.1a.37.37,0,0,1,.3.1.22.22,0,0,1,.2.2c.1.1.1.2.2.3s.1.2.1.3a.37.37,0,0,1-.1.3c0,.1-.1.2-.2.3l-.2.2c-.1,0-.2.1-.3.1h-.6v.8h-.5Zm.5-1.2h.6c.1,0,.2,0,.2-.1a.37.37,0,0,0,.1-.3v-.2a.1.1,0,0,0-.1-.1l-.1-.1h-.6V37Z" transform="translate(0 -3.34)"/><path class="cls-1" d="M40.34,38.24v-2.5h.5v2.5Z" transform="translate(0 -3.34)"/><path class="cls-1" d="M41.14,37.94l1.4-1.7h-1.4v-.4H43v.4l-1.4,1.7H43v.4H41v-.4Z" transform="translate(0 -3.34)"/><path class="cls-1" d="M43.34,37.94l1.4-1.7h-1.4v-.4h1.9v.4l-1.4,1.7h1.4v.4h-2v-.4Z" transform="translate(0 -3.34)"/><path class="cls-1" d="M46.44,35.84h.4l.9,2.5h-.5l-.2-.7h-.9l-.2.6h-.5Zm.5,1.5-.3-1-.4,1Z" transform="translate(0 -3.34)"/><path class="cls-1" d="M49.54,36.44h0a.31.31,0,0,0-.2-.1c-.1,0-.1,0-.2-.1h-.2a.37.37,0,0,0-.3.1c-.1,0-.1.1-.1.2v.1l.1.1a.31.31,0,0,1,.2.1c.1,0,.2,0,.2.1s.2.1.3.1.2.1.3.1l.2.2c0,.1.1.2.1.3a.37.37,0,0,1-.1.3.22.22,0,0,1-.2.2.37.37,0,0,1-.3.1H49a1.27,1.27,0,0,1-.6-.1c-.2-.1-.3-.1-.5-.2l.2-.4a.1.1,0,0,1,.1.1c.1,0,.1.1.2.1a.35.35,0,0,1,.2.1h.3c.3,0,.4-.1.4-.3v-.1l-.1-.1c-.1,0-.1-.1-.2-.1a.37.37,0,0,1-.3-.1c-.1,0-.2-.1-.3-.1a.35.35,0,0,1-.2-.1c-.1-.1-.1-.1-.1-.2v-.2a.37.37,0,0,1,.1-.3.22.22,0,0,1,.2-.2.37.37,0,0,1,.3-.1c.1,0,.2-.1.4-.1a.9.9,0,0,1,.5.1c.1.1.3.1.4.2Z" transform="translate(0 -3.34)"/><path class="cls-1" d="M50.94,37.54v-.4H52v.4Z" transform="translate(0 -3.34)"/><path class="cls-1" d="M55,38a1.07,1.07,0,0,1-1.2.2c-.1-.1-.3-.2-.4-.3a1.38,1.38,0,0,1-.3-.4,1.3,1.3,0,0,1,0-1c.1-.2.1-.3.3-.4a1.38,1.38,0,0,1,.4-.3.75.75,0,0,1,.5-.1,1.27,1.27,0,0,1,.6.1.78.78,0,0,1,.4.4l-.4.3-.3-.3c-.1-.1-.2-.1-.4-.1a.37.37,0,0,0-.3.1.22.22,0,0,0-.2.2.37.37,0,0,0-.1.3c0,.1-.1.2-.1.3a.37.37,0,0,0,.1.3c0,.1.1.2.2.3l.2.2c.1,0,.2.1.3.1a.71.71,0,0,0,.6-.3v-.2h-.5V37h.9v1.3H55Z" transform="translate(0 -3.34)"/><path class="cls-1" d="M55.84,38.24v-2.5h1.1a.37.37,0,0,1,.3.1.22.22,0,0,1,.2.2c.1.1.1.2.2.3s.1.2.1.3,0,.3-.1.4l-.3.3.6.9h-.5l-.5-.8h-.5v.8Zm.5-1.2H57a.1.1,0,0,0,.1-.1l.1-.1v-.4a.1.1,0,0,0-.1-.1l-.1-.1h-.7Z" transform="translate(0 -3.34)"/><path class="cls-1" d="M58.14,38.24v-2.5h.5v2.5Z" transform="translate(0 -3.34)"/><path class="cls-1" d="M59.14,38.24v-2.5h.5v2.1h1.3v.4Z" transform="translate(0 -3.34)"/><path class="cls-1" d="M61.24,38.24v-2.5h.5v2.1H63v.4Z" transform="translate(0 -3.34)"/><path class="cls-1" d="M65.54,38.24l-.2-.2c-.1.1-.2.1-.3.2s-.2.1-.4.1a.37.37,0,0,1-.3-.1c-.1,0-.2-.1-.3-.2l-.2-.2c0-.1-.1-.2-.1-.3v-.2c0-.1.1-.1.1-.2s.1-.1.1-.2.1-.1.2-.1c-.1-.1-.2-.2-.2-.3s-.1-.2-.1-.3,0-.2.1-.2.1-.1.1-.2.1-.1.2-.1h.5c.1,0,.1.1.2.1s.1.1.1.2.1.1.1.2a.6.6,0,0,1-.1.4l-.3.3.5.5a.35.35,0,0,1,.1-.2v-.3h.4a.9.9,0,0,1-.1.5.76.76,0,0,1-.2.4l.5.5h-.4Zm-.8-.3a.6.6,0,0,0,.4-.1l-.6-.6-.2.2c0,.1-.1.1-.1.2v.1l.1.1.1.1Zm-.3-1.6h0v.1l.1.1.1.1c.1-.1.2-.1.2-.2s.1-.1.1-.2,0-.1-.1-.2a.35.35,0,0,0-.2-.1c-.1,0-.1,0-.2.1Z" transform="translate(0 -3.34)"/><path class="cls-1" d="M67.14,37c0-.2,0-.3.1-.4s.1-.3.2-.4a1.38,1.38,0,0,1,.4-.3.9.9,0,0,1,.5-.1,1.42,1.42,0,0,1,.6.2.78.78,0,0,1,.4.4l-.4.3c0-.1-.1-.1-.1-.2a.35.35,0,0,0-.2-.1c-.1,0-.1,0-.2-.1h-.2a.37.37,0,0,0-.3.1.22.22,0,0,0-.2.2.37.37,0,0,0-.1.3v.3a.37.37,0,0,0,.1.3c0,.1.1.2.1.3l.2.2c.1,0,.2.1.3.1h.2c.1,0,.1,0,.2-.1s.1-.1.2-.1a.35.35,0,0,0,.1-.2l.4.2a.22.22,0,0,1-.2.2c-.1.1-.2.1-.2.2s-.2.1-.3.1h-.3a.9.9,0,0,1-.5-.1c-.1-.1-.3-.2-.4-.3a.76.76,0,0,1-.2-.4A1,1,0,0,1,67.14,37Z" transform="translate(0 -3.34)"/><path class="cls-1" d="M70.74,38.34a.9.9,0,0,1-.5-.1c-.1-.1-.3-.2-.4-.3a.76.76,0,0,1-.2-.4,1.3,1.3,0,0,1,0-1c.1-.2.1-.3.3-.4a1.38,1.38,0,0,1,.4-.3.75.75,0,0,1,.5-.1.9.9,0,0,1,.5.1c.1.1.3.2.4.3a.76.76,0,0,1,.2.4,1.3,1.3,0,0,1,0,1c-.1.2-.1.3-.3.4a1.38,1.38,0,0,1-.4.3C71,38.24,70.94,38.34,70.74,38.34ZM70,37v.3c0,.1.1.2.1.3l.2.2c.1,0,.2.1.3.1a.37.37,0,0,0,.3-.1.22.22,0,0,0,.2-.2.37.37,0,0,0,.1-.3V37a.37.37,0,0,0-.1-.3c0-.1-.1-.2-.1-.3l-.2-.2c-.1,0-.2-.1-.3-.1a.37.37,0,0,0-.3.1.22.22,0,0,0-.2.2c.1.1,0,.2,0,.3Z" transform="translate(0 -3.34)"/><path class="cls-1" d="M72.34,38.24v-2.5H74v.4h-1.2v.6h1v.4h-1v1h-.5Z" transform="translate(0 -3.34)"/><path class="cls-1" d="M74.34,38.24v-2.5H76v.4h-1.2v.6h1v.4h-1v1h-.5Z" transform="translate(0 -3.34)"/><path class="cls-1" d="M78,37.84v.4h-1.7v-2.5H78v.4h-1.2v.6h1v.4h-1v.6H78Z" transform="translate(0 -3.34)"/><path class="cls-1" d="M80.14,37.84v.4h-1.7v-2.5h1.7v.4h-1.2v.6h1v.4h-1v.6h1.2Z" transform="translate(0 -3.34)"/></svg>