<?xml version="1.0" encoding="utf-8"?>
<!-- Generator: Adobe Illustrator 23.0.0, SVG Export Plug-In . SVG Version: 6.00 Build 0)  -->
<svg version="1.1" xmlns="http://www.w3.org/2000/svg" xmlns:xlink="http://www.w3.org/1999/xlink" x="0px" y="0px"
	 viewBox="0 0 102.1 44.5" style="enable-background:new 0 0 102.1 44.5;" xml:space="preserve">
<style type="text/css">
	.st0{display:none;}
	.st1{display:inline;}
	.st2{fill:#32378C;}
	.st3{fill:#E20613;}
	.st4{fill:#FDCC39;}
	.st5{fill:#BD5317;}
	.st6{fill:#118537;}
	.st7{fill:#575756;}
	.st8{fill:#FFFFFF;}
</style>
<g id="Capa_1" class="st0">
	<g class="st1">
		<g>
			<path class="st2" d="M20.1-25.9c0.4,0.8,0.7,1.7,0.7,2.6h-2.2c0-0.3,0-0.5-0.1-0.8c-1,0.7-2.1,1.1-3.4,1.1c-1.6,0-2.9-0.6-4-1.7
				c-1.1-1.1-1.7-2.5-1.7-4c0-1.6,0.6-2.9,1.7-4c1.1-1.1,2.5-1.7,4-1.7c1.6,0,2.9,0.6,4,1.7c1.1,1.1,1.7,2.5,1.7,4
				C20.8-27.6,20.6-26.7,20.1-25.9z M16.8-30.3c-0.5-0.5-1-0.7-1.7-0.7s-1.2,0.2-1.7,0.7s-0.7,1-0.7,1.7s0.2,1.2,0.7,1.7
				s1,0.7,1.7,0.7c0.4,0,0.7-0.1,1.1-0.2c-0.3-0.1-0.6-0.1-0.9-0.1v-2.2c0.8,0,1.5,0.2,2.2,0.5c0-0.1,0-0.2,0-0.3
				C17.5-29.3,17.3-29.8,16.8-30.3z"/>
			<path class="st2" d="M30.1-27.2c0,1.2-0.4,2.2-1.3,3.1c-0.9,0.9-1.9,1.3-3.1,1.3c-1.2,0-2.2-0.4-3.1-1.3
				c-0.9-0.9-1.3-1.9-1.3-3.1v-6.7h3.3v6.7c0,0.7,0.5,1,1.1,1c0.5,0,1-0.3,1-1v-6.7H30L30.1-27.2L30.1-27.2z"/>
			<path class="st2" d="M33.9-23.3h-3.3V-34h3.3V-23.3z"/>
			<path class="st2" d="M42.3-30.6H40v7.4h-3.3v-7.4h-2.3v-3.3h8L42.3-30.6L42.3-30.6z"/>
			<path class="st2" d="M50.7-25.7c-1,1-2.2,1.5-3.5,1.5c-1.4,0-2.6-0.5-3.5-1.5c-1-1-1.5-2.2-1.5-3.5c0-1.4,0.5-2.6,1.5-3.5
				c1-1,2.2-1.5,3.5-1.5c1.4,0,2.6,0.5,3.5,1.5c1,1,1.5,2.2,1.5,3.5C52.2-27.8,51.7-26.7,50.7-25.7z M47.1-30.9
				c-0.9,0-1.7,0.8-1.7,1.7c0,0.9,0.7,1.7,1.7,1.7c0.9,0,1.7-0.8,1.7-1.7C48.8-30.2,48.1-30.9,47.1-30.9z"/>
		</g>
		<g>
			<path class="st3" d="M17.7-41.7c0.4,0,2.6,0.1,2.6,2.8c0,2.9-3.4,3.2-5.2,3.2s-4.4-0.5-4.4-0.5s-0.2-7.9-0.3-9.6c0,0,1.1-1,4-1
				c2.8,0,5,0.5,5,2.7C19.4-41.9,17.7-41.7,17.7-41.7L17.7-41.7z M14.1-42.2c0,0,0.1,0,0.2,0c0.5,0,1.7-0.1,1.7-1.2v-0.1
				c-0.1-0.8-0.6-0.9-1.1-0.9c-0.6,0-1.1,0.2-1.1,0.2L14.1-42.2z M14.8-37.8c0.8,0,2-0.2,2-1.4c0-1-0.8-1.2-1.5-1.2
				c-0.6,0-1.1,0.1-1.1,0.1v2.5C14.2-37.8,14.5-37.8,14.8-37.8z"/>
			<path class="st3" d="M25.5-46.1c0,0-0.2,1.5-0.2,3s0.2,3.1,1.3,3.1s1.3-1.4,1.3-2.9c0-1.4-0.2-2.9-0.3-3.1c0,0,0,0,0.2,0l3.5-0.3
				c0,0,0.4,1.8,0.4,3.9c0,3-0.8,6.6-4.9,6.6c-4.6,0-5.4-4.6-5.4-7.6c0-1.5,0.2-2.5,0.2-2.5h3.9V-46.1z"/>
			<path class="st3" d="M42.1-38.4c0.7,0,1.3-0.2,1.3-0.2v3.3l-1.6,0.1c-2.9,0-3.7-2.5-3.8-3.3c-0.3,0-0.5,0-0.8-0.1l0.1,2.7h-4.1
				l-0.3-10.3c0,0,1.3-0.5,5-0.5c3.6,0,5,1.1,5,4c0,1.8-0.6,3.1-2.1,3.8C41.1-38.6,41.6-38.4,42.1-38.4z M37.5-40.7
				c0.6,0,1.8-0.2,1.8-1.8c0-1.5-0.8-1.9-1.5-1.9c-0.3,0-0.6,0.1-0.8,0.1l0.2,3.6C37.2-40.7,37.3-40.7,37.5-40.7z"/>
			<path class="st3" d="M53.4-40.4v5.1h-3.5v-0.8c-2.6-0.1-5.9-1-5.9-4.9c0-4.5,3.6-5.4,6.3-5.4c1.2,0,2.3,0.2,2.9,0.3v3.5
				c0,0-1.2-0.2-2.4-0.2c-1.4,0-2.9,0.3-2.9,1.7c0,1.6,1.2,1.8,1.6,1.8h0.1l-0.1-1.1c0.4-0.1,0.9-0.1,1.5-0.1
				C52.2-40.5,53.5-40.4,53.4-40.4z"/>
			<path class="st3" d="M59.1-42.3l3.6-0.1l-0.1,2.7h-3.5v1.2h4.4l0.2,2.5h-8.4l-0.4-10.4h8.4v2.8h-4.2V-42.3z"/>
			<path class="st3" d="M74.1-38.4c0.7,0,1.3-0.2,1.3-0.2v3.3l-1.6,0.1c-2.9,0-3.7-2.5-3.8-3.3c-0.3,0-0.5,0-0.8-0.1l0.1,2.7h-4.1
				l-0.3-10.3c0,0,1.3-0.5,5-0.5c3.6,0,5,1.1,5,4c0,1.8-0.6,3.1-2.1,3.8C73.1-38.6,73.6-38.4,74.1-38.4z M69.5-40.7
				c0.6,0,1.8-0.2,1.8-1.8c0-1.5-0.8-1.9-1.5-1.9c-0.3,0-0.6,0.1-0.8,0.1l0.2,3.6C69.2-40.7,69.3-40.7,69.5-40.7z"/>
		</g>
		<g>
			<path class="st4" d="M6.5-17H-25c-2.5-1.3-1.4-5.4-1.4-5.4c0-0.4,0.4-0.8,0.8-0.8H7.1c0.4,0,0.8,0.4,0.8,0.8
				C7.9-22.4,9.1-19,6.5-17z"/>
			<g>
				<path class="st5" d="M-12.8-32.4c-0.3,0-0.5-0.1-0.7-0.2c-0.3-0.1-0.6-0.2-0.8-0.5c-0.2-0.2-0.3-0.5-0.3-0.8c0-0.1,0-0.2,0-0.3
					s0-0.2,0-0.3l0.1-0.7c0,0,0-0.1,0.1-0.1h0.7c0.2,0,0.4,0,0.5-0.1c0,0,0.1,0,0.1-0.1c0-0.1,0-0.2,0-0.3v-0.4l0.2-0.2
					c0,0,0.1-0.1-0.1-0.1h-12.6c-0.4,0-0.8,0.4-0.8,0.8v3.8c0,0.4,0.4,0.8,0.8,0.8h13C-12.7-31.5-12.8-31.8-12.8-32.4
					C-12.7-32.3-12.7-32.4-12.8-32.4z"/>
				<path class="st5" d="M-7.1-36.3c0,0.6-0.2,0.9-0.5,1.1l0.2,0.1c0.2,0.1,0.7,0.6,0.6,1.6c0,0.2,0.2,0.9,0.3,1.3
					c0.1,0.2,0.1,0.4,0.2,0.6c0.1,0.1,3.4-0.1,3.4-0.1s0.2,0,0.2,0.4v0.3h9.9C7.6-31,8-31.4,8-31.8v-3.8c0-0.4-0.4-0.8-0.8-0.8H-6.9
					C-6.9-36.5-7-36.5-7.1-36.3z"/>
			</g>
			<path class="st6" d="M6.8-27.5H3.9c-1.5-0.3-1.6-0.7-3.1-1.1c-1.5-0.3-2.7,0.9-2.9,1.1l0,0c0,0,0.1-1.3-0.1-1.4
				c-0.1-0.1-1.3,0-1.3,0s0.1-1.7-0.1-1.8c-0.1-0.1-1.9-0.1-2,0c-0.1,0.2,0.1,1.8,0.1,1.8l-2.3,0.1c0,0-0.2,0.6-0.4,0.6
				c-0.2,0.1-0.7-0.1-0.7-0.1s0.2-1.4,0.2-1.5s0.1-1.8,0.1-1.8s-0.5-1.2-0.3-1.4s0.3-0.4,0.3-0.4s0.3,0.8,0.8,1.4s0.9,0.9,0.8,0.5
				s-0.6-1.8-0.6-2.4c0.1-0.6-0.1-0.7-0.2-0.7c-0.1-0.1-0.5,0-0.5,0l-0.3-0.1c0,0-0.6-0.4-0.2-0.8c0.4-0.4,0.7-0.5,0.7-0.9
				c0-0.5-0.2-1-1.1-0.9c-0.9,0.1-0.9,0.9-0.7,1.2c0,0-0.1,0.8-0.2,0.8s-0.8,0.1-1,0.6c0,0,0-0.7-0.6-0.6c0,0-0.1-0.2,0.2-0.5
				c0,0-0.1-0.6-0.6-0.2c-0.1,0-0.1,0.1-0.1,0.2c0,0,0.1,0.9,0,1.1c-0.1,0.1-0.9,0.5-1.5,0.5c0,0-0.1,0.6,0.2,0.6
				c0.3,0.1,0.7,0.3,1.1,0.3c0.4,0,0.6-0.2,0.7,0c0,0.2,0,0.6,0,0.8c0,0.3,0.1,1.7,0.5,1.9c0,0,0.1,2-0.1,2.2
				c-0.2,0.1-0.4,0.1-0.8,0.1c-0.4,0-0.5-0.1-0.8-0.2s-1-0.9-1.6-0.9s-0.8-0.2-1.6,0.3c-0.7,0.5-1,0.7-1.6,0.9
				c-0.6,0.2-0.8,0.3-1.6,0.4c-0.6,0.1-1.4,0.3-1.9,0.3h-4.5c-0.4,0-0.8,0.4-0.8,0.8v1c0,0.4,0.4,0.8,0.8,0.8H6.8
				c0.4,0,0.8-0.4,0.8-0.8v-1C7.6-27.1,7.2-27.5,6.8-27.5z"/>
			<path class="st4" d="M-8.7-51.4c-14.6,0-17.6,10.6-17.6,11.6c0,0.9-0.2,1.6,0.6,1.6H6.9c0,0,0.8,0.2,0.8-1.1
				C7.7-40.6,6-51.4-8.7-51.4z M-21.1-43.9c-0.7-0.6,1.3-2,1.3-2S-20.4-43.3-21.1-43.9z M-15.6-48c-0.3-0.9,2-1.2,2-1.2
				S-15.2-47.2-15.6-48z M-13.3-43.9c-0.7-0.6,1.3-2,1.3-2S-12.6-43.3-13.3-43.9z M-8.5-47.1c-0.9,0.2-0.2-2.3-0.2-2.3
				S-7.6-47.3-8.5-47.1z M-4.9-43.9c-0.7,0.6-1.3-2-1.3-2S-4.2-44.6-4.9-43.9z M-2.2-48c-0.3,0.9-2-1.2-2-1.2S-1.9-48.9-2.2-48z
				 M3-43.9c-0.7,0.6-1.3-2-1.3-2S3.7-44.6,3-43.9z"/>
		</g>
		<g>
			<path class="st7" d="M11.5-16.5V-19h1.1c0.1,0,0.2,0,0.3,0.1c0.1,0,0.2,0.1,0.2,0.2c0.1,0.1,0.1,0.2,0.2,0.3
				c0,0.1,0.1,0.2,0.1,0.3s0,0.2-0.1,0.3c0,0.1-0.1,0.2-0.2,0.3c-0.1,0.1-0.1,0.1-0.2,0.2c-0.1,0-0.2,0.1-0.3,0.1H12v0.8L11.5-16.5
				L11.5-16.5z M12-17.7h0.6c0.1,0,0.2,0,0.2-0.1c0.1-0.1,0.1-0.2,0.1-0.3s0-0.1,0-0.2c0,0,0-0.1-0.1-0.1l-0.1-0.1h-0.1h-0.5v0.8H12
				z"/>
			<path class="st7" d="M13.7-16.5V-19h0.5v2.5H13.7z"/>
			<path class="st7" d="M14.5-16.8l1.4-1.7h-1.4v-0.4h1.9v0.4L15-16.8h1.4v0.4h-2L14.5-16.8L14.5-16.8z"/>
			<path class="st7" d="M16.7-16.8l1.4-1.7h-1.4v-0.4h1.9v0.4l-1.4,1.7h1.4v0.4h-2L16.7-16.8L16.7-16.8z"/>
			<path class="st7" d="M19.8-18.9h0.4l0.9,2.5h-0.5l-0.2-0.7h-0.9l-0.2,0.6h-0.5L19.8-18.9z M20.3-17.4l-0.3-1l-0.4,1H20.3z"/>
			<path class="st7" d="M22.9-18.3C22.8-18.3,22.8-18.3,22.9-18.3c-0.1-0.1-0.2-0.1-0.2-0.1c-0.1,0-0.1,0-0.2-0.1
				c-0.1,0-0.1,0-0.2,0c-0.1,0-0.2,0-0.3,0.1c-0.1,0-0.1,0.1-0.1,0.2c0,0.1,0,0.1,0,0.1L22-18c0,0,0.1,0,0.2,0.1
				c0.1,0,0.2,0,0.2,0.1c0.1,0,0.2,0.1,0.3,0.1s0.2,0.1,0.3,0.1c0.1,0.1,0.1,0.1,0.2,0.2c0,0.1,0.1,0.2,0.1,0.3s0,0.2-0.1,0.3
				c0,0.1-0.1,0.2-0.2,0.2c-0.1,0.1-0.2,0.1-0.3,0.1s-0.2,0-0.3,0c-0.2,0-0.4,0-0.6-0.1c-0.2-0.1-0.3-0.1-0.5-0.2l0.2-0.4
				c0,0,0.1,0,0.1,0.1c0.1,0,0.1,0.1,0.2,0.1c0.1,0,0.2,0.1,0.2,0.1c0.1,0,0.2,0,0.3,0c0.3,0,0.4-0.1,0.4-0.3c0-0.1,0-0.1,0-0.1
				l-0.1-0.1c-0.1,0-0.1-0.1-0.2-0.1c-0.1,0-0.2,0-0.3-0.1c-0.1,0-0.2-0.1-0.3-0.1s-0.2-0.1-0.2-0.1c-0.1-0.1-0.1-0.1-0.1-0.2
				c0-0.1,0-0.2,0-0.2c0-0.1,0-0.2,0.1-0.3c0-0.1,0.1-0.2,0.2-0.2c0.1-0.1,0.2-0.1,0.3-0.1s0.2-0.1,0.4-0.1s0.3,0,0.5,0.1
				c0.1,0.1,0.3,0.1,0.4,0.2L22.9-18.3z"/>
			<path class="st7" d="M24.3-17.2v-0.4h1.1v0.4H24.3z"/>
			<path class="st7" d="M28.4-16.7c-0.2,0.2-0.4,0.3-0.7,0.3c-0.2,0-0.3,0-0.5-0.1c-0.1-0.1-0.3-0.2-0.4-0.3
				c-0.1-0.1-0.2-0.2-0.3-0.4s-0.1-0.3-0.1-0.5s0-0.3,0.1-0.5s0.1-0.3,0.3-0.4c0.1-0.1,0.2-0.2,0.4-0.3c0.1-0.1,0.3-0.1,0.5-0.1
				s0.4,0,0.6,0.1c0.2,0.1,0.3,0.2,0.4,0.4l-0.4,0.3c-0.1-0.1-0.2-0.2-0.3-0.3s-0.2-0.1-0.4-0.1c-0.1,0-0.2,0-0.3,0.1
				c-0.1,0-0.2,0.1-0.2,0.2C27-18.2,27-18.1,27-18s-0.1,0.2-0.1,0.3s0,0.2,0.1,0.3c0,0.1,0.1,0.2,0.2,0.3c0.1,0.1,0.1,0.1,0.2,0.2
				c0.1,0,0.2,0.1,0.3,0.1c0.2,0,0.5-0.1,0.6-0.3v-0.2h-0.5v-0.4h0.9v1.3h-0.3V-16.7z"/>
			<path class="st7" d="M29.2-16.5V-19h1.1c0.1,0,0.2,0,0.3,0.1c0.1,0,0.2,0.1,0.2,0.2c0.1,0.1,0.1,0.2,0.2,0.3
				c0,0.1,0.1,0.2,0.1,0.3c0,0.2,0,0.3-0.1,0.4c-0.1,0.1-0.2,0.2-0.3,0.3l0.6,0.9h-0.5l-0.5-0.8h-0.5v0.8H29.2z M29.7-17.7h0.6h0.1
				c0,0,0.1,0,0.1-0.1l0.1-0.1c0,0,0-0.1,0-0.2c0-0.1,0-0.1,0-0.2c0,0,0-0.1-0.1-0.1l-0.1-0.1h-0.1h-0.6V-17.7z"/>
			<path class="st7" d="M31.5-16.5V-19H32v2.5H31.5z"/>
			<path class="st7" d="M32.5-16.5V-19H33v2.1h1.3v0.4H32.5z"/>
			<path class="st7" d="M34.6-16.5V-19h0.5v2.1h1.3v0.4H34.6z"/>
			<path class="st7" d="M38.9-16.5l-0.2-0.2c-0.1,0.1-0.2,0.1-0.3,0.2c-0.1,0-0.2,0.1-0.4,0.1c-0.1,0-0.2,0-0.3-0.1
				c-0.1,0-0.2-0.1-0.3-0.2c-0.1-0.1-0.1-0.1-0.2-0.2c0-0.1-0.1-0.2-0.1-0.3s0-0.1,0-0.2c0-0.1,0.1-0.1,0.1-0.2
				c0-0.1,0.1-0.1,0.1-0.2c0.1,0,0.1-0.1,0.2-0.1c-0.1-0.1-0.2-0.2-0.2-0.3s-0.1-0.2-0.1-0.3s0-0.2,0.1-0.2c0-0.1,0.1-0.1,0.1-0.2
				c0.1-0.1,0.1-0.1,0.2-0.1s0.2,0,0.3,0c0.1,0,0.2,0,0.2,0c0.1,0,0.1,0.1,0.2,0.1s0.1,0.1,0.1,0.2c0,0.1,0.1,0.1,0.1,0.2
				c0,0.1,0,0.3-0.1,0.4c-0.1,0.1-0.2,0.2-0.3,0.3l0.5,0.5c0-0.1,0.1-0.2,0.1-0.2c0-0.1,0-0.2,0-0.3h0.4c0,0.2,0,0.3-0.1,0.5
				c0,0.1-0.1,0.3-0.2,0.4l0.5,0.5h-0.4V-16.5z M38.1-16.8c0.1,0,0.3,0,0.4-0.1l-0.6-0.6c-0.1,0.1-0.1,0.1-0.2,0.2
				c0,0.1-0.1,0.1-0.1,0.2v0.1l0.1,0.1l0.1,0.1C38-16.8,38-16.8,38.1-16.8z M37.8-18.4L37.8-18.4C37.8-18.3,37.8-18.3,37.8-18.4
				c0,0.1,0,0.1,0.1,0.2l0.1,0.1c0.1-0.1,0.2-0.1,0.2-0.2c0-0.1,0.1-0.1,0.1-0.2c0-0.1,0-0.1-0.1-0.2c0,0-0.1-0.1-0.2-0.1
				s-0.1,0-0.2,0.1C37.8-18.5,37.8-18.5,37.8-18.4z"/>
			<path class="st7" d="M40.5-17.7c0-0.2,0-0.3,0.1-0.4c0.1-0.1,0.1-0.3,0.2-0.4c0.1-0.1,0.2-0.2,0.4-0.3c0.2-0.1,0.3-0.1,0.5-0.1
				s0.4,0.1,0.6,0.2c0.2,0.1,0.3,0.2,0.4,0.4L42.3-18c0-0.1-0.1-0.1-0.1-0.2c0,0-0.1-0.1-0.2-0.1s-0.1,0-0.2-0.1c-0.1,0-0.1,0-0.2,0
				s-0.2,0-0.3,0.1c-0.1,0-0.2,0.1-0.2,0.2C41-18,41-17.9,41-17.8s0,0.2,0,0.3s0,0.2,0.1,0.3c0,0.1,0.1,0.2,0.1,0.3
				c0.1,0.1,0.1,0.1,0.2,0.2c0.1,0,0.2,0.1,0.3,0.1c0.1,0,0.1,0,0.2,0s0.1,0,0.2-0.1c0.1,0,0.1-0.1,0.2-0.1c0,0,0.1-0.1,0.1-0.2
				l0.4,0.2c0,0.1-0.1,0.2-0.2,0.2c-0.1,0.1-0.2,0.1-0.2,0.2c-0.1,0-0.2,0.1-0.3,0.1c-0.1,0-0.2,0-0.3,0c-0.2,0-0.3,0-0.5-0.1
				c-0.1-0.1-0.3-0.2-0.4-0.3s-0.2-0.3-0.2-0.4C40.5-17.4,40.5-17.6,40.5-17.7z"/>
			<path class="st7" d="M44.1-16.4c-0.2,0-0.3,0-0.5-0.1c-0.1-0.1-0.3-0.2-0.4-0.3S43-17.1,43-17.2c-0.1-0.2-0.1-0.3-0.1-0.5
				s0-0.3,0.1-0.5s0.1-0.3,0.3-0.4c0.1-0.1,0.2-0.2,0.4-0.3C43.8-19,44-19,44.2-19s0.3,0,0.5,0.1c0.1,0.1,0.3,0.2,0.4,0.3
				s0.2,0.3,0.2,0.4c0.1,0.2,0.1,0.3,0.1,0.5s0,0.3-0.1,0.5s-0.1,0.3-0.3,0.4c-0.1,0.1-0.2,0.2-0.4,0.3
				C44.4-16.5,44.3-16.4,44.1-16.4z M43.4-17.7c0,0.1,0,0.2,0,0.3s0.1,0.2,0.1,0.3c0.1,0.1,0.1,0.1,0.2,0.2c0.1,0,0.2,0.1,0.3,0.1
				c0.1,0,0.2,0,0.3-0.1c0.1,0,0.2-0.1,0.2-0.2c0.1-0.1,0.1-0.2,0.1-0.3s0-0.2,0-0.3s0-0.2-0.1-0.3c0-0.1-0.1-0.2-0.1-0.3
				c-0.1-0.1-0.1-0.1-0.2-0.2c-0.1,0-0.2-0.1-0.3-0.1c-0.1,0-0.2,0-0.3,0.1c-0.1,0-0.2,0.1-0.2,0.2c0.1,0.1,0,0.2,0,0.3
				C43.4-17.9,43.4-17.8,43.4-17.7z"/>
			<path class="st7" d="M45.7-16.5V-19h1.7v0.4h-1.2v0.6h1v0.4h-1v1L45.7-16.5L45.7-16.5z"/>
			<path class="st7" d="M47.7-16.5V-19h1.7v0.4h-1.2v0.6h1v0.4h-1v1L47.7-16.5L47.7-16.5z"/>
			<path class="st7" d="M51.4-16.9v0.4h-1.7V-19h1.7v0.4h-1.2v0.6h1v0.4h-1v0.6L51.4-16.9L51.4-16.9z"/>
			<path class="st7" d="M53.5-16.9v0.4h-1.7V-19h1.7v0.4h-1.2v0.6h1v0.4h-1v0.6L53.5-16.9L53.5-16.9z"/>
		</g>
	</g>
</g>
<g id="Capa_3">
	<g>
		<g>
			<path class="st8" d="M46.7,28.8c0.4,0.8,0.7,1.7,0.7,2.6h-2.2c0-0.3,0-0.5-0.1-0.8c-1,0.7-2.1,1.1-3.4,1.1c-1.6,0-2.9-0.6-4-1.7
				c-1.1-1.1-1.7-2.5-1.7-4c0-1.6,0.6-2.9,1.7-4c1.1-1.1,2.5-1.7,4-1.7c1.6,0,2.9,0.6,4,1.7s1.7,2.5,1.7,4
				C47.4,27.1,47.2,28,46.7,28.8z M43.4,24.4c-0.5-0.5-1-0.7-1.7-0.7s-1.2,0.2-1.7,0.7s-0.7,1-0.7,1.7s0.2,1.2,0.7,1.7
				s1,0.7,1.7,0.7c0.4,0,0.7-0.1,1.1-0.2c-0.3-0.1-0.6-0.1-0.9-0.1V26c0.8,0,1.5,0.2,2.2,0.5c0-0.1,0-0.2,0-0.3
				C44.1,25.4,43.9,24.9,43.4,24.4z"/>
			<path class="st8" d="M56.7,27.5c0,1.2-0.4,2.2-1.3,3.1c-0.9,0.9-1.9,1.3-3.1,1.3c-1.2,0-2.2-0.4-3.1-1.3
				c-0.9-0.9-1.3-1.9-1.3-3.1v-6.7h3.3v6.7c0,0.7,0.5,1,1.1,1c0.5,0,1-0.3,1-1v-6.7h3.3L56.7,27.5L56.7,27.5z"/>
			<path class="st8" d="M60.5,31.4h-3.3V20.7h3.3V31.4z"/>
			<path class="st8" d="M68.9,24.1h-2.3v7.4h-3.3v-7.4H61v-3.3h8L68.9,24.1L68.9,24.1z"/>
			<path class="st8" d="M77.3,29c-1,1-2.2,1.5-3.5,1.5c-1.4,0-2.6-0.5-3.5-1.5c-1-1-1.5-2.2-1.5-3.5c0-1.4,0.5-2.6,1.5-3.5
				c1-1,2.2-1.5,3.5-1.5c1.4,0,2.6,0.5,3.5,1.5c1,1,1.5,2.2,1.5,3.5C78.8,26.9,78.3,28,77.3,29z M73.7,23.8c-0.9,0-1.7,0.8-1.7,1.7
				c0,0.9,0.7,1.7,1.7,1.7c0.9,0,1.7-0.8,1.7-1.7C75.4,24.5,74.7,23.8,73.7,23.8z"/>
		</g>
		<g>
			<path class="st8" d="M44.3,13c0.4,0,2.6,0.1,2.6,2.8c0,2.9-3.4,3.2-5.2,3.2s-4.4-0.5-4.4-0.5s-0.2-7.9-0.3-9.6c0,0,1.1-1,4-1
				c2.8,0,5,0.5,5,2.7S44.3,13,44.3,13L44.3,13z M40.7,12.5c0,0,0.1,0,0.2,0c0.5,0,1.7-0.1,1.7-1.2v-0.1c-0.1-0.8-0.6-0.9-1.1-0.9
				c-0.6,0-1.1,0.2-1.1,0.2L40.7,12.5z M41.4,16.9c0.8,0,2-0.2,2-1.4c0-1-0.8-1.2-1.5-1.2c-0.6,0-1.1,0.1-1.1,0.1v2.5
				C40.8,16.9,41.1,16.9,41.4,16.9z"/>
			<path class="st8" d="M52.1,8.6c0,0-0.2,1.5-0.2,3s0.2,3.1,1.3,3.1s1.3-1.4,1.3-2.9c0-1.4-0.2-2.9-0.3-3.1c0,0,0,0,0.2,0l3.5-0.3
				c0,0,0.4,1.8,0.4,3.9c0,3-0.8,6.6-4.9,6.6c-4.6,0-5.4-4.6-5.4-7.6c0-1.5,0.2-2.5,0.2-2.5h3.9V8.6z"/>
			<path class="st8" d="M68.7,16.3c0.7,0,1.3-0.2,1.3-0.2v3.3l-1.6,0.1c-2.9,0-3.7-2.5-3.8-3.3c-0.3,0-0.5,0-0.8-0.1l0.1,2.7h-4.1
				L59.5,8.5c0,0,1.3-0.5,5-0.5c3.6,0,5,1.1,5,4c0,1.8-0.6,3.1-2.1,3.8C67.7,16.1,68.2,16.3,68.7,16.3z M64.1,14
				c0.6,0,1.8-0.2,1.8-1.8c0-1.5-0.8-1.9-1.5-1.9c-0.3,0-0.6,0.1-0.8,0.1l0.2,3.6C63.8,14,63.9,14,64.1,14z"/>
			<path class="st8" d="M80,14.3v5.1h-3.5v-0.8c-2.6-0.1-5.9-1-5.9-4.9c0-4.5,3.6-5.4,6.3-5.4c1.2,0,2.3,0.2,2.9,0.3v3.5
				c0,0-1.2-0.2-2.4-0.2c-1.4,0-2.9,0.3-2.9,1.7c0,1.6,1.2,1.8,1.6,1.8h0.1l-0.1-1.1c0.4-0.1,0.9-0.1,1.5-0.1
				C78.8,14.2,80.1,14.3,80,14.3z"/>
			<path class="st8" d="M85.7,12.4l3.6-0.1L89.2,15h-3.5v1.2h4.4l0.2,2.5h-8.4L81.5,8.3h8.4v2.8h-4.2V12.4z"/>
			<path class="st8" d="M100.7,16.3c0.7,0,1.3-0.2,1.3-0.2v3.3l-1.6,0.1c-2.9,0-3.7-2.5-3.8-3.3c-0.3,0-0.5,0-0.8-0.1l0.1,2.7h-4.1
				L91.5,8.5c0,0,1.3-0.5,5-0.5c3.6,0,5,1.1,5,4c0,1.8-0.6,3.1-2.1,3.8C99.7,16.1,100.2,16.3,100.7,16.3z M96.1,14
				c0.6,0,1.8-0.2,1.8-1.8c0-1.5-0.8-1.9-1.5-1.9c-0.3,0-0.6,0.1-0.8,0.1l0.2,3.6C95.8,14,95.9,14,96.1,14z"/>
		</g>
		<g>
			<path class="st8" d="M33.1,37.7H1.6c-2.5-1.3-1.4-5.4-1.4-5.4c0-0.4,0.4-0.8,0.8-0.8h32.7c0.4,0,0.8,0.4,0.8,0.8
				C34.5,32.3,35.7,35.7,33.1,37.7z"/>
			<g>
				<path class="st8" d="M13.8,22.3c-0.3,0-0.5-0.1-0.7-0.2c-0.3-0.1-0.6-0.2-0.8-0.5c-0.2-0.2-0.3-0.5-0.3-0.8c0-0.1,0-0.2,0-0.3
					c0-0.1,0-0.2,0-0.3l0.1-0.7c0,0,0-0.1,0.1-0.1h0.7c0.2,0,0.4,0,0.5-0.1c0,0,0.1,0,0.1-0.1s0-0.2,0-0.3v-0.4l0.2-0.2
					c0,0,0.1-0.1-0.1-0.1H1c-0.4,0-0.8,0.4-0.8,0.8v3.8c0,0.4,0.4,0.8,0.8,0.8h13C13.9,23.2,13.8,22.9,13.8,22.3
					C13.9,22.4,13.9,22.3,13.8,22.3z"/>
				<path class="st8" d="M19.5,18.4c0,0.6-0.2,0.9-0.5,1.1l0.2,0.1c0.2,0.1,0.7,0.6,0.6,1.6c0,0.2,0.2,0.9,0.3,1.3
					c0.1,0.2,0.1,0.4,0.2,0.6c0.1,0.1,3.4-0.1,3.4-0.1s0.2,0,0.2,0.4v0.3h9.9c0.4,0,0.8-0.4,0.8-0.8v-3.8c0-0.4-0.4-0.8-0.8-0.8
					H19.7C19.7,18.2,19.6,18.2,19.5,18.4z"/>
			</g>
			<path class="st8" d="M33.4,27.2h-2.9c-1.5-0.3-1.6-0.7-3.1-1.1c-1.5-0.3-2.7,0.9-2.9,1.1l0,0c0,0,0.1-1.3-0.1-1.4
				c-0.1-0.1-1.3,0-1.3,0s0.1-1.7-0.1-1.8c-0.1-0.1-1.9-0.1-2,0c-0.1,0.2,0.1,1.8,0.1,1.8l-2.3,0.1c0,0-0.2,0.6-0.4,0.6
				c-0.2,0.1-0.7-0.1-0.7-0.1s0.2-1.4,0.2-1.5s0.1-1.8,0.1-1.8s-0.5-1.2-0.3-1.4c0.2-0.2,0.3-0.4,0.3-0.4s0.3,0.8,0.8,1.4
				s0.9,0.9,0.8,0.5S19,21.4,19,20.8c0.1-0.6-0.1-0.7-0.2-0.7c-0.1-0.1-0.5,0-0.5,0L18,20c0,0-0.6-0.4-0.2-0.8s0.7-0.5,0.7-0.9
				c0-0.5-0.2-1-1.1-0.9s-0.9,0.9-0.7,1.2c0,0-0.1,0.8-0.2,0.8s-0.8,0.1-1,0.6c0,0,0-0.7-0.6-0.6c0,0-0.1-0.2,0.2-0.5
				c0,0-0.1-0.6-0.6-0.2c-0.1,0-0.1,0.1-0.1,0.2c0,0,0.1,0.9,0,1.1c-0.1,0.1-0.9,0.5-1.5,0.5c0,0-0.1,0.6,0.2,0.6
				c0.3,0.1,0.7,0.3,1.1,0.3c0.4,0,0.6-0.2,0.7,0c0,0.2,0,0.6,0,0.8c0,0.3,0.1,1.7,0.5,1.9c0,0,0.1,2-0.1,2.2
				c-0.2,0.1-0.4,0.1-0.8,0.1c-0.4,0-0.5-0.1-0.8-0.2s-1-0.9-1.6-0.9s-0.8-0.2-1.6,0.3c-0.7,0.5-1,0.7-1.6,0.9
				c-0.6,0.2-0.8,0.3-1.6,0.4c-0.6,0.1-1.4,0.3-1.9,0.3H0.9c-0.4,0-0.8,0.4-0.8,0.8v1c0,0.4,0.4,0.8,0.8,0.8h32.5
				c0.4,0,0.8-0.4,0.8-0.8v-1C34.2,27.6,33.8,27.2,33.4,27.2z"/>
			<path class="st8" d="M17.9,3.3C3.3,3.3,0.3,13.9,0.3,14.9c0,0.9-0.2,1.6,0.6,1.6h32.6c0,0,0.8,0.2,0.8-1.1
				C34.3,14.1,32.6,3.3,17.9,3.3z M5.5,10.8c-0.7-0.6,1.3-2,1.3-2S6.2,11.4,5.5,10.8z M11,6.7c-0.3-0.9,2-1.2,2-1.2S11.4,7.5,11,6.7
				z M13.3,10.8c-0.7-0.6,1.3-2,1.3-2S14,11.4,13.3,10.8z M18.1,7.6c-0.9,0.2-0.2-2.3-0.2-2.3S19,7.4,18.1,7.6z M21.7,10.8
				c-0.7,0.6-1.3-2-1.3-2S22.4,10.1,21.7,10.8z M24.4,6.7c-0.3,0.9-2-1.2-2-1.2S24.7,5.8,24.4,6.7z M29.6,10.8c-0.7,0.6-1.3-2-1.3-2
				S30.3,10.1,29.6,10.8z"/>
		</g>
		<g>
			<path class="st8" d="M38.1,38.2v-2.5h1.1c0.1,0,0.2,0,0.3,0.1c0.1,0,0.2,0.1,0.2,0.2c0.1,0.1,0.1,0.2,0.2,0.3
				c0,0.1,0.1,0.2,0.1,0.3s0,0.2-0.1,0.3c0,0.1-0.1,0.2-0.2,0.3c-0.1,0.1-0.1,0.1-0.2,0.2c-0.1,0-0.2,0.1-0.3,0.1h-0.6v0.8
				L38.1,38.2L38.1,38.2z M38.6,37h0.6c0.1,0,0.2,0,0.2-0.1c0.1-0.1,0.1-0.2,0.1-0.3s0-0.1,0-0.2c0,0,0-0.1-0.1-0.1l-0.1-0.1h-0.1
				h-0.5V37H38.6z"/>
			<path class="st8" d="M40.3,38.2v-2.5h0.5v2.5H40.3z"/>
			<path class="st8" d="M41.1,37.9l1.4-1.7h-1.4v-0.4H43v0.4l-1.4,1.7H43v0.4h-2L41.1,37.9L41.1,37.9z"/>
			<path class="st8" d="M43.3,37.9l1.4-1.7h-1.4v-0.4h1.9v0.4l-1.4,1.7h1.4v0.4h-2L43.3,37.9L43.3,37.9z"/>
			<path class="st8" d="M46.4,35.8h0.4l0.9,2.5h-0.5L47,37.6h-0.9l-0.2,0.6h-0.5L46.4,35.8z M46.9,37.3l-0.3-1l-0.4,1H46.9z"/>
			<path class="st8" d="M49.5,36.4C49.4,36.4,49.4,36.4,49.5,36.4c-0.1-0.1-0.2-0.1-0.2-0.1c-0.1,0-0.1,0-0.2-0.1
				c-0.1,0-0.1,0-0.2,0c-0.1,0-0.2,0-0.3,0.1c-0.1,0-0.1,0.1-0.1,0.2c0,0.1,0,0.1,0,0.1l0.1,0.1c0,0,0.1,0,0.2,0.1
				c0.1,0,0.2,0,0.2,0.1c0.1,0,0.2,0.1,0.3,0.1s0.2,0.1,0.3,0.1c0.1,0.1,0.1,0.1,0.2,0.2c0,0.1,0.1,0.2,0.1,0.3s0,0.2-0.1,0.3
				c0,0.1-0.1,0.2-0.2,0.2c-0.1,0.1-0.2,0.1-0.3,0.1s-0.2,0-0.3,0c-0.2,0-0.4,0-0.6-0.1c-0.2-0.1-0.3-0.1-0.5-0.2l0.2-0.4
				c0,0,0.1,0,0.1,0.1c0.1,0,0.1,0.1,0.2,0.1c0.1,0,0.2,0.1,0.2,0.1c0.1,0,0.2,0,0.3,0c0.3,0,0.4-0.1,0.4-0.3c0-0.1,0-0.1,0-0.1
				l-0.1-0.1c-0.1,0-0.1-0.1-0.2-0.1c-0.1,0-0.2,0-0.3-0.1c-0.1,0-0.2-0.1-0.3-0.1s-0.2-0.1-0.2-0.1c-0.1-0.1-0.1-0.1-0.1-0.2
				c0-0.1,0-0.2,0-0.2c0-0.1,0-0.2,0.1-0.3c0-0.1,0.1-0.2,0.2-0.2c0.1-0.1,0.2-0.1,0.3-0.1s0.2-0.1,0.4-0.1s0.3,0,0.5,0.1
				c0.1,0.1,0.3,0.1,0.4,0.2L49.5,36.4z"/>
			<path class="st8" d="M50.9,37.5v-0.4H52v0.4H50.9z"/>
			<path class="st8" d="M55,38c-0.2,0.2-0.4,0.3-0.7,0.3c-0.2,0-0.3,0-0.5-0.1c-0.1-0.1-0.3-0.2-0.4-0.3c-0.1-0.1-0.2-0.2-0.3-0.4
				S53,37.2,53,37s0-0.3,0.1-0.5s0.1-0.3,0.3-0.4c0.1-0.1,0.2-0.2,0.4-0.3c0.1-0.1,0.3-0.1,0.5-0.1s0.4,0,0.6,0.1
				c0.2,0.1,0.3,0.2,0.4,0.4l-0.4,0.3c-0.1-0.1-0.2-0.2-0.3-0.3s-0.2-0.1-0.4-0.1c-0.1,0-0.2,0-0.3,0.1c-0.1,0-0.2,0.1-0.2,0.2
				c-0.1,0.1-0.1,0.2-0.1,0.3s-0.1,0.2-0.1,0.3s0,0.2,0.1,0.3c0,0.1,0.1,0.2,0.2,0.3c0.1,0.1,0.1,0.1,0.2,0.2c0.1,0,0.2,0.1,0.3,0.1
				c0.2,0,0.5-0.1,0.6-0.3v-0.2h-0.5V37h0.9v1.3H55V38z"/>
			<path class="st8" d="M55.8,38.2v-2.5h1.1c0.1,0,0.2,0,0.3,0.1c0.1,0,0.2,0.1,0.2,0.2c0.1,0.1,0.1,0.2,0.2,0.3
				c0,0.1,0.1,0.2,0.1,0.3c0,0.2,0,0.3-0.1,0.4c-0.1,0.1-0.2,0.2-0.3,0.3l0.6,0.9h-0.5l-0.5-0.8h-0.5v0.8H55.8z M56.3,37h0.6H57
				c0,0,0.1,0,0.1-0.1l0.1-0.1c0,0,0-0.1,0-0.2c0-0.1,0-0.1,0-0.2c0,0,0-0.1-0.1-0.1L57,36.2h-0.1h-0.6V37z"/>
			<path class="st8" d="M58.1,38.2v-2.5h0.5v2.5H58.1z"/>
			<path class="st8" d="M59.1,38.2v-2.5h0.5v2.1h1.3v0.4H59.1z"/>
			<path class="st8" d="M61.2,38.2v-2.5h0.5v2.1H63v0.4H61.2z"/>
			<path class="st8" d="M65.5,38.2L65.3,38c-0.1,0.1-0.2,0.1-0.3,0.2c-0.1,0-0.2,0.1-0.4,0.1c-0.1,0-0.2,0-0.3-0.1
				c-0.1,0-0.2-0.1-0.3-0.2c-0.1-0.1-0.1-0.1-0.2-0.2c0-0.1-0.1-0.2-0.1-0.3s0-0.1,0-0.2c0-0.1,0.1-0.1,0.1-0.2
				c0-0.1,0.1-0.1,0.1-0.2c0.1,0,0.1-0.1,0.2-0.1c-0.1-0.1-0.2-0.2-0.2-0.3s-0.1-0.2-0.1-0.3s0-0.2,0.1-0.2c0-0.1,0.1-0.1,0.1-0.2
				c0.1-0.1,0.1-0.1,0.2-0.1s0.2,0,0.3,0c0.1,0,0.2,0,0.2,0c0.1,0,0.1,0.1,0.2,0.1S65,35.9,65,36c0,0.1,0.1,0.1,0.1,0.2
				c0,0.1,0,0.3-0.1,0.4c-0.1,0.1-0.2,0.2-0.3,0.3l0.5,0.5c0-0.1,0.1-0.2,0.1-0.2c0-0.1,0-0.2,0-0.3h0.4c0,0.2,0,0.3-0.1,0.5
				c0,0.1-0.1,0.3-0.2,0.4l0.5,0.5h-0.4V38.2z M64.7,37.9c0.1,0,0.3,0,0.4-0.1l-0.6-0.6c-0.1,0.1-0.1,0.1-0.2,0.2
				c0,0.1-0.1,0.1-0.1,0.2v0.1l0.1,0.1l0.1,0.1C64.6,37.9,64.6,37.9,64.7,37.9z M64.4,36.3L64.4,36.3C64.4,36.4,64.4,36.4,64.4,36.3
				c0,0.1,0,0.1,0.1,0.2l0.1,0.1c0.1-0.1,0.2-0.1,0.2-0.2c0-0.1,0.1-0.1,0.1-0.2c0-0.1,0-0.1-0.1-0.2c0,0-0.1-0.1-0.2-0.1
				s-0.1,0-0.2,0.1C64.4,36.2,64.4,36.2,64.4,36.3z"/>
			<path class="st8" d="M67.1,37c0-0.2,0-0.3,0.1-0.4c0.1-0.1,0.1-0.3,0.2-0.4c0.1-0.1,0.2-0.2,0.4-0.3c0.2-0.1,0.3-0.1,0.5-0.1
				s0.4,0.1,0.6,0.2c0.2,0.1,0.3,0.2,0.4,0.4l-0.4,0.3c0-0.1-0.1-0.1-0.1-0.2c0,0-0.1-0.1-0.2-0.1s-0.1,0-0.2-0.1
				c-0.1,0-0.1,0-0.2,0s-0.2,0-0.3,0.1c-0.1,0-0.2,0.1-0.2,0.2c-0.1,0.1-0.1,0.2-0.1,0.3s0,0.2,0,0.3s0,0.2,0.1,0.3
				c0,0.1,0.1,0.2,0.1,0.3c0.1,0.1,0.1,0.1,0.2,0.2c0.1,0,0.2,0.1,0.3,0.1c0.1,0,0.1,0,0.2,0s0.1,0,0.2-0.1c0.1,0,0.1-0.1,0.2-0.1
				c0,0,0.1-0.1,0.1-0.2l0.4,0.2c0,0.1-0.1,0.2-0.2,0.2c-0.1,0.1-0.2,0.1-0.2,0.2c-0.1,0-0.2,0.1-0.3,0.1c-0.1,0-0.2,0-0.3,0
				c-0.2,0-0.3,0-0.5-0.1c-0.1-0.1-0.3-0.2-0.4-0.3s-0.2-0.3-0.2-0.4C67.1,37.3,67.1,37.1,67.1,37z"/>
			<path class="st8" d="M70.7,38.3c-0.2,0-0.3,0-0.5-0.1c-0.1-0.1-0.3-0.2-0.4-0.3s-0.2-0.3-0.2-0.4c-0.1-0.2-0.1-0.3-0.1-0.5
				s0-0.3,0.1-0.5s0.1-0.3,0.3-0.4c0.1-0.1,0.2-0.2,0.4-0.3c0.1-0.1,0.3-0.1,0.5-0.1s0.3,0,0.5,0.1c0.1,0.1,0.3,0.2,0.4,0.3
				s0.2,0.3,0.2,0.4C72,36.7,72,36.8,72,37s0,0.3-0.1,0.5s-0.1,0.3-0.3,0.4c-0.1,0.1-0.2,0.2-0.4,0.3C71,38.2,70.9,38.3,70.7,38.3z
				 M70,37c0,0.1,0,0.2,0,0.3s0.1,0.2,0.1,0.3c0.1,0.1,0.1,0.1,0.2,0.2c0.1,0,0.2,0.1,0.3,0.1c0.1,0,0.2,0,0.3-0.1
				c0.1,0,0.2-0.1,0.2-0.2c0.1-0.1,0.1-0.2,0.1-0.3s0-0.2,0-0.3s0-0.2-0.1-0.3c0-0.1-0.1-0.2-0.1-0.3c-0.1-0.1-0.1-0.1-0.2-0.2
				c-0.1,0-0.2-0.1-0.3-0.1c-0.1,0-0.2,0-0.3,0.1c-0.1,0-0.2,0.1-0.2,0.2c0.1,0.1,0,0.2,0,0.3C70,36.8,70,36.9,70,37z"/>
			<path class="st8" d="M72.3,38.2v-2.5H74v0.4h-1.2v0.6h1v0.4h-1v1L72.3,38.2L72.3,38.2z"/>
			<path class="st8" d="M74.3,38.2v-2.5H76v0.4h-1.2v0.6h1v0.4h-1v1L74.3,38.2L74.3,38.2z"/>
			<path class="st8" d="M78,37.8v0.4h-1.7v-2.5H78v0.4h-1.2v0.6h1v0.4h-1v0.6L78,37.8L78,37.8z"/>
			<path class="st8" d="M80.1,37.8v0.4h-1.7v-2.5h1.7v0.4h-1.2v0.6h1v0.4h-1v0.6L80.1,37.8L80.1,37.8z"/>
		</g>
	</g>
</g>
</svg>
