<?xml version="1.0" encoding="utf-8"?>
<!-- Generator: Adobe Illustrator 23.0.0, SVG Export Plug-In . SVG Version: 6.00 Build 0)  -->
<svg version="1.1" xmlns="http://www.w3.org/2000/svg" xmlns:xlink="http://www.w3.org/1999/xlink" x="0px" y="0px"
	 viewBox="0 0 102.1 44.5" style="enable-background:new 0 0 102.1 44.5;" xml:space="preserve">
<style type="text/css">
	.st0{display:none;}
	.st1{display:inline;}
	.st2{fill:#111111;stroke:#111111;stroke-width:2;stroke-miterlimit:10;}
	.st3{fill:#111111;stroke:#111111;stroke-width:0.25;stroke-miterlimit:10;}
	.st4{fill:#32378C;}
	.st5{fill:#E20613;}
	.st6{fill:#FDCC39;}
	.st7{fill:#BD5317;}
	.st8{fill:#118537;}
	.st9{fill:#575756;}
</style>
<g id="logo-dark" class="st0">
	<g class="st1">
		<path class="st2" d="M20.1,6.1c0,0.4-0.1,0.6-0.5,0.6c-0.4,0-0.7-0.2-0.8-0.6c-0.4-1.2-0.9-2-1.6-2.4c-0.7-0.5-1.7-0.7-3-0.7H8.9
			c-0.5,0-1,0.2-1.3,0.5S7.2,4.2,7.2,4.7v7.9c0,0.3,0.2,0.5,0.5,0.5H14c0.3,0,0.6-0.1,0.8-0.2c0.2-0.2,0.3-0.3,0.4-0.5
			c0.1-0.2,0.1-0.4,0.3-0.8l0.1-0.5c0.1-0.3,0.2-0.4,0.5-0.4c0.3,0,0.5,0.2,0.5,0.5l-0.1,3.1l0.1,3c0,0.3-0.1,0.5-0.4,0.5
			c-0.3,0-0.5-0.1-0.5-0.4l-0.1-0.6c-0.1-0.6-0.2-1.1-0.5-1.4c-0.2-0.3-0.5-0.5-1-0.5H7.6c-0.3,0-0.4,0.2-0.4,0.5v8.9
			c0,0.9,0.5,1.4,1.6,1.5l1.1,0.1c0.3,0,0.4,0.1,0.4,0.4c0,0.4-0.2,0.5-0.5,0.5l-4.1-0.1l-4.1,0.1c-0.3,0-0.5-0.2-0.5-0.5
			s0.1-0.5,0.4-0.5l1-0.1c0.5,0,0.9-0.2,1.2-0.4c0.3-0.3,0.5-0.6,0.5-1V3.8c0-0.9-0.6-1.3-1.7-1.4l-1-0.1C1.1,2.2,1,2.1,1,1.7
			c0-0.3,0.2-0.5,0.5-0.5l4.1,0.1H18c0.5,0,0.8,0.1,1.1,0.4c0.3,0.3,0.5,0.6,0.5,1L20.1,6.1z"/>
		<path class="st2" d="M36.8,1c3.8,0,6.8,1.2,9.1,3.6c2.3,2.4,3.4,5.5,3.4,9.3s-1.2,6.9-3.5,9.4S40.4,27,36.7,27
			c-3.7,0-6.8-1.2-9.1-3.7c-2.3-2.4-3.5-5.5-3.5-9.3c0-3.8,1.2-6.9,3.5-9.3C29.9,2.2,33,1,36.8,1z M43.8,6.7
			c-0.7-1.2-1.7-2.2-2.9-2.9c-1.2-0.7-2.7-1.1-4.3-1.1c-2.9,0-5.2,0.9-6.8,2.7c-1.6,1.8-2.4,4.2-2.4,7.3c0,3.2,0.7,6,2.2,8.6
			c0.7,1.2,1.7,2.3,2.9,3c1.2,0.8,2.7,1.1,4.3,1.1c2.9,0,5.1-0.9,6.7-2.8s2.4-4.4,2.4-7.6S45.2,9,43.8,6.7z"/>
		<path class="st2" d="M58.8,25.7c0.3,0,0.4,0.2,0.4,0.5c0,0.3-0.2,0.5-0.5,0.5L56,26.6l-3.8,0.1c-0.3,0-0.5-0.1-0.5-0.4
			s0.1-0.5,0.4-0.5l1.1-0.1c0.7-0.1,1.4-0.6,2.1-1.4l6.9-9.9L55.2,3.8c-0.6-0.9-1.3-1.4-2.1-1.4l-1-0.1c-0.3,0-0.4-0.2-0.4-0.5
			s0.2-0.4,0.5-0.4l3.3,0.1l3.7-0.1c0.4,0,0.5,0.2,0.5,0.5s-0.1,0.5-0.4,0.5l-0.6,0.1c-0.4,0-0.7,0.2-0.8,0.5
			c-0.1,0.3-0.1,0.6,0.1,0.9l6,7.9l5.5-7.9c0.2-0.3,0.3-0.6,0.1-0.9c-0.1-0.3-0.4-0.5-0.9-0.5L68,2.3c-0.3,0-0.4-0.2-0.4-0.5
			s0.2-0.5,0.5-0.5l2.7,0.1l3.8-0.1c0.3,0,0.5,0.1,0.5,0.4S75,2.2,74.7,2.2l-1.1,0.1c-0.7,0.1-1.4,0.6-2.1,1.4L65,13.2l7.2,11
			c0.6,0.9,1.3,1.4,2.1,1.4l1,0.1c0.3,0,0.4,0.2,0.4,0.5s-0.2,0.4-0.5,0.4l-4.2-0.1l-3.7,0.1c-0.4,0-0.5-0.2-0.5-0.5
			c0-0.3,0.1-0.5,0.4-0.5l0.7-0.1c0.4,0,0.7-0.2,0.8-0.5c0.1-0.3,0.1-0.6-0.1-0.9l-5.5-8.4l-6.7,8.4c-0.2,0.3,0.6,0.6,0.8,0.9
			c0.1,0.3,0.4,0.5,0.9,0.5L58.8,25.7z"/>
		<path class="st2" d="M98.9,26.6H85.4l-4.1,0.1c-0.3,0-0.5-0.2-0.5-0.5s0.1-0.5,0.4-0.5l1-0.1c0.5,0,0.9-0.2,1.2-0.4
			c0.3-0.3,0.5-0.6,0.5-1V3.8c0-0.9-0.6-1.3-1.7-1.4l-1-0.1c-0.3,0-0.4-0.2-0.4-0.5c0-0.3,0.2-0.5,0.5-0.5l4.1,0.1h12.8
			c0.5,0,0.8,0.1,1.1,0.4c0.3,0.3,0.5,0.6,0.5,1l0.5,3.3c0,0.4-0.1,0.6-0.5,0.6c-0.4,0-0.7-0.2-0.8-0.6c-0.4-1.2-0.9-2-1.6-2.4
			c-0.7-0.5-1.7-0.7-3-0.7h-5.7c-0.5,0-1,0.2-1.3,0.5c-0.3,0.3-0.5,0.7-0.5,1.2v7.6c0,0.3,0.2,0.5,0.5,0.5h6.7
			c0.3,0,0.6-0.1,0.8-0.3c0.2-0.2,0.3-0.3,0.4-0.5c0.1-0.1,0.1-0.4,0.3-0.8l0.1-0.5c0.1-0.3,0.3-0.4,0.5-0.4c0.3,0,0.4,0.2,0.4,0.5
			l-0.1,3.1l0.1,2.9c0,0.3-0.2,0.5-0.5,0.5c-0.3,0-0.5-0.1-0.5-0.4l-0.1-0.6c-0.2-1.2-0.7-1.9-1.5-1.9h-6.7c-0.3,0-0.4,0.2-0.4,0.5
			v8.4c0,0.5,0.2,0.9,0.5,1.2c0.3,0.3,0.8,0.5,1.3,0.5h5.9c1.2,0,2.3-0.3,3.2-0.9c0.9-0.6,1.5-1.5,1.9-2.7c0.1-0.4,0.3-0.6,0.6-0.6
			c0.3,0,0.5,0.1,0.6,0.2c0.1,0.1,0.2,0.3,0.1,0.5l-0.6,3.7c0,0.4-0.2,0.8-0.5,1C99.7,26.5,99.3,26.6,98.9,26.6z"/>
	</g>
	<g class="st1">
		<path class="st3" d="M9.3,44.2H7.9c-0.3,0-0.5-0.1-0.6-0.3l-3-4.1c-0.1-0.1-0.2-0.2-0.3-0.3c-0.1-0.1-0.3-0.1-0.5-0.1H2.3v4.8H0.8
			V32.8H4c0.7,0,1.4,0.1,1.9,0.2s1,0.4,1.3,0.6c0.3,0.3,0.6,0.6,0.8,1c0.2,0.4,0.2,0.8,0.2,1.3c0,0.4-0.1,0.8-0.2,1.1
			c-0.1,0.4-0.3,0.7-0.6,0.9s-0.5,0.5-0.9,0.7c-0.3,0.2-0.7,0.3-1.2,0.4c0.2,0.1,0.4,0.3,0.5,0.5L9.3,44.2z M4,38.3
			c0.4,0,0.8-0.1,1.2-0.2C5.5,38,5.8,37.9,6,37.7s0.4-0.4,0.5-0.7s0.2-0.6,0.2-0.9c0-0.7-0.2-1.2-0.7-1.5C5.6,34.2,4.9,34,4,34H2.3
			v4.3H4z"/>
		<path class="st3" d="M31,43l0,1.3H24V32.8H31V34h-5.5v3.8H30V39h-4.5V43C25.5,43,31,43,31,43z"/>
		<path class="st3" d="M52.2,34.6c0,0.1-0.1,0.1-0.2,0.2s-0.1,0.1-0.2,0.1c-0.1,0-0.2,0-0.3-0.1c-0.1-0.1-0.3-0.2-0.5-0.3
			c-0.2-0.1-0.4-0.2-0.7-0.3c-0.3-0.1-0.6-0.1-0.9-0.1c-0.3,0-0.7,0-0.9,0.1c-0.3,0.1-0.5,0.2-0.7,0.4s-0.3,0.3-0.4,0.6
			s-0.1,0.4-0.1,0.7c0,0.3,0.1,0.6,0.2,0.8c0.2,0.2,0.4,0.4,0.6,0.5s0.6,0.3,0.9,0.4s0.7,0.2,1,0.3s0.7,0.2,1,0.4
			c0.3,0.1,0.6,0.3,0.9,0.6s0.5,0.5,0.6,0.8s0.2,0.7,0.2,1.2c0,0.5-0.1,1-0.3,1.4c-0.2,0.4-0.4,0.8-0.7,1.1s-0.7,0.6-1.2,0.8
			s-1,0.3-1.6,0.3c-0.7,0-1.4-0.1-2-0.4c-0.6-0.3-1.1-0.6-1.6-1.1l0.4-0.7c0-0.1,0.1-0.1,0.2-0.1s0.1-0.1,0.2-0.1
			c0.1,0,0.1,0,0.2,0.1c0.1,0.1,0.2,0.1,0.3,0.2c0.1,0.1,0.2,0.2,0.4,0.3c0.1,0.1,0.3,0.2,0.5,0.3s0.4,0.2,0.6,0.2s0.5,0.1,0.8,0.1
			c0.4,0,0.7-0.1,1-0.2c0.3-0.1,0.5-0.2,0.7-0.4c0.2-0.2,0.4-0.4,0.5-0.7c0.1-0.3,0.2-0.5,0.2-0.9c0-0.3-0.1-0.6-0.2-0.9
			c-0.2-0.2-0.4-0.4-0.6-0.6c-0.3-0.1-0.5-0.3-0.9-0.4c-0.3-0.1-0.7-0.2-1-0.3c-0.3-0.1-0.7-0.2-1-0.4c-0.3-0.1-0.6-0.3-0.9-0.6
			s-0.5-0.5-0.6-0.9s-0.2-0.8-0.2-1.3c0-0.4,0.1-0.8,0.2-1.2c0.2-0.4,0.4-0.7,0.7-1c0.3-0.3,0.7-0.5,1.1-0.7
			c0.4-0.2,0.9-0.3,1.5-0.3c0.6,0,1.2,0.1,1.7,0.3c0.5,0.2,1,0.5,1.4,0.9L52.2,34.6z"/>
		<path class="st3" d="M75.9,34.1h-3.7v10.2h-1.5V34.1H67v-1.3h9V34.1z"/>
		<path class="st3" d="M100.9,38.5c0,0.9-0.1,1.6-0.4,2.4c-0.3,0.7-0.7,1.3-1.2,1.9s-1.1,0.9-1.8,1.2s-1.5,0.4-2.3,0.4
			c-0.8,0-1.6-0.1-2.3-0.4s-1.3-0.7-1.8-1.2c-0.5-0.5-0.9-1.1-1.2-1.9c-0.3-0.7-0.4-1.5-0.4-2.4c0-0.9,0.1-1.6,0.4-2.4
			c0.3-0.7,0.7-1.3,1.2-1.9c0.5-0.5,1.1-0.9,1.8-1.2s1.5-0.4,2.3-0.4c0.8,0,1.6,0.1,2.3,0.4s1.3,0.7,1.8,1.2
			c0.5,0.5,0.9,1.1,1.2,1.9C100.7,36.8,100.9,37.6,100.9,38.5z M99.3,38.5c0-0.7-0.1-1.3-0.3-1.9c-0.2-0.6-0.5-1-0.8-1.4
			c-0.4-0.4-0.8-0.7-1.3-0.9S95.8,34,95.2,34c-0.6,0-1.2,0.1-1.7,0.3c-0.5,0.2-0.9,0.5-1.3,0.9c-0.4,0.4-0.6,0.9-0.8,1.4
			s-0.3,1.2-0.3,1.9c0,0.7,0.1,1.3,0.3,1.9s0.5,1,0.8,1.4c0.4,0.4,0.8,0.7,1.3,0.9c0.5,0.2,1.1,0.3,1.7,0.3c0.6,0,1.2-0.1,1.7-0.3
			c0.5-0.2,0.9-0.5,1.3-0.9c0.4-0.4,0.6-0.9,0.8-1.4C99.2,39.8,99.3,39.2,99.3,38.5z"/>
	</g>
</g>
<g id="Capa_2">
	<g>
		<path class="st4" d="M46.7,31.2c0.4,0.8,0.7,1.7,0.7,2.6h-2.2c0-0.3,0-0.5-0.1-0.8c-1,0.7-2.1,1.1-3.4,1.1c-1.6,0-2.9-0.6-4-1.7
			c-1.1-1.1-1.7-2.5-1.7-4c0-1.6,0.6-2.9,1.7-4c1.1-1.1,2.5-1.7,4-1.7c1.6,0,2.9,0.6,4,1.7c1.1,1.1,1.7,2.5,1.7,4
			C47.4,29.5,47.2,30.4,46.7,31.2z M43.4,26.8c-0.5-0.5-1-0.7-1.7-0.7c-0.7,0-1.2,0.2-1.7,0.7c-0.5,0.5-0.7,1-0.7,1.7
			c0,0.7,0.2,1.2,0.7,1.7c0.5,0.5,1,0.7,1.7,0.7c0.4,0,0.7-0.1,1.1-0.2c-0.3-0.1-0.6-0.1-0.9-0.1v-2.2c0.8,0,1.5,0.2,2.2,0.5
			c0-0.1,0-0.2,0-0.3C44.1,27.8,43.9,27.3,43.4,26.8z"/>
		<path class="st4" d="M56.7,29.9c0,1.2-0.4,2.2-1.3,3.1c-0.9,0.9-1.9,1.3-3.1,1.3c-1.2,0-2.2-0.4-3.1-1.3c-0.9-0.9-1.3-1.9-1.3-3.1
			v-6.7h3.3v6.7c0,0.7,0.5,1,1.1,1c0.5,0,1-0.3,1-1v-6.7h3.3V29.9z"/>
		<path class="st4" d="M60.5,33.8h-3.3V23.1h3.3V33.8z"/>
		<path class="st4" d="M68.9,26.5h-2.3v7.4h-3.3v-7.4h-2.3v-3.3h8V26.5z"/>
		<path class="st4" d="M77.3,31.4c-1,1-2.2,1.5-3.5,1.5c-1.4,0-2.6-0.5-3.5-1.5c-1-1-1.5-2.2-1.5-3.5c0-1.4,0.5-2.6,1.5-3.5
			c1-1,2.2-1.5,3.5-1.5c1.4,0,2.6,0.5,3.5,1.5c1,1,1.5,2.2,1.5,3.5C78.8,29.3,78.3,30.4,77.3,31.4z M73.7,26.2
			c-0.9,0-1.7,0.8-1.7,1.7c0,0.9,0.7,1.7,1.7,1.7c0.9,0,1.7-0.8,1.7-1.7C75.4,26.9,74.7,26.2,73.7,26.2z"/>
	</g>
	<g>
		<path class="st5" d="M44.3,15.4c0.4,0,2.6,0.1,2.6,2.8c0,2.9-3.4,3.2-5.2,3.2c-1.8,0-4.4-0.5-4.4-0.5S37.1,13,37,11.3
			c0,0,1.1-1,4-1c2.8,0,5,0.5,5,2.7C46,15.2,44.3,15.4,44.3,15.4C44.3,15.4,44.3,15.4,44.3,15.4z M40.7,14.9c0,0,0.1,0,0.2,0
			c0.5,0,1.7-0.1,1.7-1.2v-0.1c-0.1-0.8-0.6-0.9-1.1-0.9c-0.6,0-1.1,0.2-1.1,0.2L40.7,14.9z M41.4,19.3c0.8,0,2-0.2,2-1.4
			c0-1-0.8-1.2-1.5-1.2c-0.6,0-1.1,0.1-1.1,0.1v2.5C40.8,19.3,41.1,19.3,41.4,19.3z"/>
		<path class="st5" d="M52.1,11c0,0-0.2,1.5-0.2,3c0,1.5,0.2,3.1,1.3,3.1c1.1,0,1.3-1.4,1.3-2.9c0-1.4-0.2-2.9-0.3-3.1
			c0,0,0,0,0.2,0l3.5-0.3c0,0,0.4,1.8,0.4,3.9c0,3-0.8,6.6-4.9,6.6c-4.6,0-5.4-4.6-5.4-7.6c0-1.5,0.2-2.5,0.2-2.5H52.1z"/>
		<path class="st5" d="M68.7,18.7c0.7,0,1.3-0.2,1.3-0.2v3.3l-1.6,0.1c-2.9,0-3.7-2.5-3.8-3.3c-0.3,0-0.5,0-0.8-0.1l0.1,2.7h-4.1
			l-0.3-10.3c0,0,1.3-0.5,5-0.5c3.6,0,5,1.1,5,4c0,1.8-0.6,3.1-2.1,3.8C67.7,18.5,68.2,18.7,68.7,18.7z M64.1,16.4
			c0.6,0,1.8-0.2,1.8-1.8c0-1.5-0.8-1.9-1.5-1.9c-0.3,0-0.6,0.1-0.8,0.1l0.2,3.6C63.8,16.4,63.9,16.4,64.1,16.4z"/>
		<path class="st5" d="M80,16.7v5.1h-3.5l0-0.8c-2.6-0.1-5.9-1-5.9-4.9c0-4.5,3.6-5.4,6.3-5.4c1.2,0,2.3,0.2,2.9,0.3v3.5
			c0,0-1.2-0.2-2.4-0.2c-1.4,0-2.9,0.3-2.9,1.7c0,1.6,1.2,1.8,1.6,1.8h0.1l-0.1-1.1c0.4-0.1,0.9-0.1,1.5-0.1
			C78.8,16.6,80.1,16.7,80,16.7z"/>
		<path class="st5" d="M85.7,14.8l3.6-0.1l-0.1,2.7h-3.5v1.2h4.4l0.2,2.5h-8.4l-0.4-10.4h8.4v2.8h-4.2V14.8z"/>
		<path class="st5" d="M100.7,18.7c0.7,0,1.3-0.2,1.3-0.2v3.3l-1.6,0.1c-2.9,0-3.7-2.5-3.8-3.3c-0.3,0-0.5,0-0.8-0.1l0.1,2.7h-4.1
			l-0.3-10.3c0,0,1.3-0.5,5-0.5c3.6,0,5,1.1,5,4c0,1.8-0.6,3.1-2.1,3.8C99.7,18.5,100.2,18.7,100.7,18.7z M96.1,16.4
			c0.6,0,1.8-0.2,1.8-1.8c0-1.5-0.8-1.9-1.5-1.9c-0.3,0-0.6,0.1-0.8,0.1l0.2,3.6C95.8,16.4,95.9,16.4,96.1,16.4z"/>
	</g>
	<g>
		<path class="st6" d="M33.1,40.1H1.6c-2.5-1.3-1.4-5.4-1.4-5.4c0-0.4,0.4-0.8,0.8-0.8h32.7c0.4,0,0.8,0.4,0.8,0.8
			C34.5,34.7,35.7,38.1,33.1,40.1z"/>
		<g>
			<path class="st7" d="M13.8,24.7c-0.3,0-0.5-0.1-0.7-0.2c-0.3-0.1-0.6-0.2-0.8-0.5c-0.2-0.2-0.3-0.5-0.3-0.8c0-0.1,0-0.2,0-0.3
				c0-0.1,0-0.2,0-0.3l0.1-0.7c0,0,0-0.1,0.1-0.1l0.7,0c0.2,0,0.4,0,0.5-0.1c0,0,0.1,0,0.1-0.1c0-0.1,0-0.2,0-0.3l0-0.4l0.2-0.2
				c0,0,0.1-0.1-0.1-0.1L1,20.6c-0.4,0-0.8,0.4-0.8,0.8v3.8c0,0.4,0.4,0.8,0.8,0.8h13c-0.1-0.4-0.2-0.7-0.2-1.3
				C13.9,24.8,13.9,24.7,13.8,24.7z"/>
			<path class="st7" d="M19.5,20.8c0,0.6-0.2,0.9-0.5,1.1l0.2,0.1c0.2,0.1,0.7,0.6,0.6,1.6c0,0.2,0.2,0.9,0.3,1.3
				c0.1,0.2,0.1,0.4,0.2,0.6c0.1,0.1,3.4-0.1,3.4-0.1s0.2,0,0.2,0.4l0,0.3h9.9c0.4,0,0.8-0.4,0.8-0.8v-3.8c0-0.4-0.4-0.8-0.8-0.8
				H19.7C19.7,20.6,19.6,20.6,19.5,20.8z"/>
		</g>
		<path class="st8" d="M33.4,29.6h-2.9c-1.5-0.3-1.6-0.7-3.1-1.1c-1.5-0.3-2.7,0.9-2.9,1.1h0c0,0,0.1-1.3-0.1-1.4
			c-0.1-0.1-1.3,0-1.3,0s0.1-1.7-0.1-1.8c-0.1-0.1-1.9-0.1-2,0c-0.1,0.2,0.1,1.8,0.1,1.8l-2.3,0.1c0,0-0.2,0.6-0.4,0.6
			c-0.2,0.1-0.7-0.1-0.7-0.1s0.2-1.4,0.2-1.5c0-0.1,0.1-1.8,0.1-1.8s-0.5-1.2-0.3-1.4c0.2-0.2,0.3-0.4,0.3-0.4s0.3,0.8,0.8,1.4
			c0.5,0.6,0.9,0.9,0.8,0.5c-0.1-0.4-0.6-1.8-0.6-2.4c0.1-0.6-0.1-0.7-0.2-0.7c-0.1-0.1-0.5,0-0.5,0L18,22.4c0,0-0.6-0.4-0.2-0.8
			c0.4-0.4,0.7-0.5,0.7-0.9c0-0.5-0.2-1-1.1-0.9c-0.9,0.1-0.9,0.9-0.7,1.2c0,0-0.1,0.8-0.2,0.8c-0.1,0-0.8,0.1-1,0.6
			c0,0,0-0.7-0.6-0.6c0,0-0.1-0.2,0.2-0.5c0,0-0.1-0.6-0.6-0.2c-0.1,0-0.1,0.1-0.1,0.2c0,0,0.1,0.9,0,1.1c-0.1,0.1-0.9,0.5-1.5,0.5
			c0,0-0.1,0.6,0.2,0.6c0.3,0.1,0.7,0.3,1.1,0.3c0.4,0,0.6-0.2,0.7,0c0,0.2,0,0.6,0,0.8c0,0.3,0.1,1.7,0.5,1.9c0,0,0.1,2-0.1,2.2
			c-0.2,0.1-0.4,0.1-0.8,0.1c-0.4,0-0.5-0.1-0.8-0.2c-0.3-0.1-1-0.9-1.6-0.9c-0.6,0-0.8-0.2-1.6,0.3c-0.7,0.5-1,0.7-1.6,0.9
			c-0.6,0.2-0.8,0.3-1.6,0.4c-0.6,0.1-1.4,0.3-1.9,0.3H0.9c-0.4,0-0.8,0.4-0.8,0.8v1c0,0.4,0.4,0.8,0.8,0.8h32.5
			c0.4,0,0.8-0.4,0.8-0.8v-1C34.2,30,33.8,29.6,33.4,29.6z"/>
		<path class="st6" d="M17.9,5.7C3.3,5.7,0.3,16.3,0.3,17.3c0,0.9-0.2,1.6,0.6,1.6h32.6c0,0,0.8,0.2,0.8-1.1
			C34.3,16.5,32.6,5.7,17.9,5.7z M5.5,13.2c-0.7-0.6,1.3-2,1.3-2S6.2,13.8,5.5,13.2z M11,9.1c-0.3-0.9,2-1.2,2-1.2S11.4,9.9,11,9.1z
			 M13.3,13.2c-0.7-0.6,1.3-2,1.3-2S14,13.8,13.3,13.2z M18.1,10c-0.9,0.2-0.2-2.3-0.2-2.3S19,9.8,18.1,10z M21.7,13.2
			c-0.7,0.6-1.3-2-1.3-2S22.4,12.5,21.7,13.2z M24.4,9.1c-0.3,0.9-2-1.2-2-1.2S24.7,8.2,24.4,9.1z M29.6,13.2c-0.7,0.6-1.3-2-1.3-2
			S30.3,12.5,29.6,13.2z"/>
	</g>
	<g>
		<path class="st9" d="M38.1,40.6v-2.5h1.1c0.1,0,0.2,0,0.3,0.1c0.1,0,0.2,0.1,0.2,0.2c0.1,0.1,0.1,0.2,0.2,0.3
			c0,0.1,0.1,0.2,0.1,0.3c0,0.1,0,0.2-0.1,0.3c0,0.1-0.1,0.2-0.2,0.3c-0.1,0.1-0.1,0.1-0.2,0.2c-0.1,0-0.2,0.1-0.3,0.1h-0.6v0.8
			H38.1z M38.6,39.4h0.6c0.1,0,0.2,0,0.2-0.1c0.1-0.1,0.1-0.2,0.1-0.3c0-0.1,0-0.1,0-0.2c0,0,0-0.1-0.1-0.1c0,0-0.1-0.1-0.1-0.1
			c0,0-0.1,0-0.1,0h-0.5V39.4z"/>
		<path class="st9" d="M40.3,40.6v-2.5h0.5v2.5H40.3z"/>
		<path class="st9" d="M41.1,40.3l1.4-1.7h-1.4v-0.4h1.9v0.4l-1.4,1.7h1.4v0.4h-2V40.3z"/>
		<path class="st9" d="M43.3,40.3l1.4-1.7h-1.4v-0.4h1.9v0.4l-1.4,1.7h1.4v0.4h-2V40.3z"/>
		<path class="st9" d="M46.4,38.2h0.4l0.9,2.5h-0.5L47,40h-0.9l-0.2,0.6h-0.5L46.4,38.2z M46.9,39.7l-0.3-1l-0.4,1H46.9z"/>
		<path class="st9" d="M49.5,38.8C49.4,38.8,49.4,38.8,49.5,38.8c-0.1-0.1-0.2-0.1-0.2-0.1c-0.1,0-0.1,0-0.2-0.1c-0.1,0-0.1,0-0.2,0
			c-0.1,0-0.2,0-0.3,0.1c-0.1,0-0.1,0.1-0.1,0.2c0,0.1,0,0.1,0,0.1c0,0,0.1,0.1,0.1,0.1c0,0,0.1,0,0.2,0.1c0.1,0,0.2,0,0.2,0.1
			c0.1,0,0.2,0.1,0.3,0.1c0.1,0,0.2,0.1,0.3,0.1c0.1,0.1,0.1,0.1,0.2,0.2c0,0.1,0.1,0.2,0.1,0.3c0,0.1,0,0.2-0.1,0.3
			c0,0.1-0.1,0.2-0.2,0.2c-0.1,0.1-0.2,0.1-0.3,0.1c-0.1,0-0.2,0-0.3,0c-0.2,0-0.4,0-0.6-0.1c-0.2-0.1-0.3-0.1-0.5-0.2l0.2-0.4
			c0,0,0.1,0,0.1,0.1c0.1,0,0.1,0.1,0.2,0.1c0.1,0,0.2,0.1,0.2,0.1c0.1,0,0.2,0,0.3,0c0.3,0,0.4-0.1,0.4-0.3c0-0.1,0-0.1,0-0.1
			c0,0-0.1-0.1-0.1-0.1c-0.1,0-0.1-0.1-0.2-0.1c-0.1,0-0.2,0-0.3-0.1c-0.1,0-0.2-0.1-0.3-0.1c-0.1,0-0.2-0.1-0.2-0.1
			c-0.1-0.1-0.1-0.1-0.1-0.2c0-0.1,0-0.2,0-0.2c0-0.1,0-0.2,0.1-0.3c0-0.1,0.1-0.2,0.2-0.2c0.1-0.1,0.2-0.1,0.3-0.1
			c0.1,0,0.2-0.1,0.4-0.1c0.2,0,0.3,0,0.5,0.1c0.1,0.1,0.3,0.1,0.4,0.2L49.5,38.8z"/>
		<path class="st9" d="M50.9,39.9v-0.4H52v0.4H50.9z"/>
		<path class="st9" d="M55,40.4c-0.2,0.2-0.4,0.3-0.7,0.3c-0.2,0-0.3,0-0.5-0.1c-0.1-0.1-0.3-0.2-0.4-0.3c-0.1-0.1-0.2-0.2-0.3-0.4
			c-0.1-0.2-0.1-0.3-0.1-0.5c0-0.2,0-0.3,0.1-0.5c0.1-0.2,0.1-0.3,0.3-0.4c0.1-0.1,0.2-0.2,0.4-0.3c0.1-0.1,0.3-0.1,0.5-0.1
			c0.2,0,0.4,0,0.6,0.1c0.2,0.1,0.3,0.2,0.4,0.4l-0.4,0.3c-0.1-0.1-0.2-0.2-0.3-0.3c-0.1-0.1-0.2-0.1-0.4-0.1c-0.1,0-0.2,0-0.3,0.1
			c-0.1,0-0.2,0.1-0.2,0.2c-0.1,0.1-0.1,0.2-0.1,0.3c0,0.1-0.1,0.2-0.1,0.3c0,0.1,0,0.2,0.1,0.3c0,0.1,0.1,0.2,0.2,0.3
			c0.1,0.1,0.1,0.1,0.2,0.2c0.1,0,0.2,0.1,0.3,0.1c0.2,0,0.5-0.1,0.6-0.3v-0.2h-0.5v-0.4h0.9v1.3H55V40.4z"/>
		<path class="st9" d="M55.8,40.6v-2.5h1.1c0.1,0,0.2,0,0.3,0.1c0.1,0,0.2,0.1,0.2,0.2c0.1,0.1,0.1,0.2,0.2,0.3
			c0,0.1,0.1,0.2,0.1,0.3c0,0.2,0,0.3-0.1,0.4c-0.1,0.1-0.2,0.2-0.3,0.3l0.6,0.9h-0.5l-0.5-0.8h-0.5v0.8H55.8z M56.3,39.4h0.6
			c0,0,0.1,0,0.1,0c0,0,0.1,0,0.1-0.1c0,0,0.1-0.1,0.1-0.1c0,0,0-0.1,0-0.2c0-0.1,0-0.1,0-0.2c0,0,0-0.1-0.1-0.1
			c0,0-0.1-0.1-0.1-0.1c0,0-0.1,0-0.1,0h-0.6V39.4z"/>
		<path class="st9" d="M58.1,40.6v-2.5h0.5v2.5H58.1z"/>
		<path class="st9" d="M59.1,40.6v-2.5h0.5v2.1h1.3v0.4H59.1z"/>
		<path class="st9" d="M61.2,40.6v-2.5h0.5v2.1h1.3v0.4H61.2z"/>
		<path class="st9" d="M65.5,40.6l-0.2-0.2c-0.1,0.1-0.2,0.1-0.3,0.2c-0.1,0-0.2,0.1-0.4,0.1c-0.1,0-0.2,0-0.3-0.1
			c-0.1,0-0.2-0.1-0.3-0.2c-0.1-0.1-0.1-0.1-0.2-0.2c0-0.1-0.1-0.2-0.1-0.3c0-0.1,0-0.1,0-0.2c0-0.1,0.1-0.1,0.1-0.2
			c0-0.1,0.1-0.1,0.1-0.2c0.1,0,0.1-0.1,0.2-0.1c-0.1-0.1-0.2-0.2-0.2-0.3c0-0.1-0.1-0.2-0.1-0.3c0-0.1,0-0.2,0.1-0.2
			c0-0.1,0.1-0.1,0.1-0.2c0.1-0.1,0.1-0.1,0.2-0.1c0.1,0,0.2,0,0.3,0c0.1,0,0.2,0,0.2,0c0.1,0,0.1,0.1,0.2,0.1
			c0.1,0,0.1,0.1,0.1,0.2c0,0.1,0.1,0.1,0.1,0.2c0,0.1,0,0.3-0.1,0.4c-0.1,0.1-0.2,0.2-0.3,0.3l0.5,0.5c0-0.1,0.1-0.2,0.1-0.2
			c0-0.1,0-0.2,0-0.3h0.4c0,0.2,0,0.3-0.1,0.5c0,0.1-0.1,0.3-0.2,0.4l0.5,0.5H65.5z M64.7,40.3c0.1,0,0.3,0,0.4-0.1l-0.6-0.6
			c-0.1,0.1-0.1,0.1-0.2,0.2c0,0.1-0.1,0.1-0.1,0.2c0,0,0,0.1,0,0.1c0,0,0.1,0.1,0.1,0.1c0,0,0.1,0.1,0.1,0.1
			C64.6,40.3,64.6,40.3,64.7,40.3z M64.4,38.7C64.4,38.7,64.4,38.7,64.4,38.7c0,0.1,0,0.1,0,0.1c0,0,0,0,0.1,0.1
			c0,0,0.1,0.1,0.1,0.1c0.1-0.1,0.2-0.1,0.2-0.2c0-0.1,0.1-0.1,0.1-0.2c0-0.1,0-0.1-0.1-0.2c0,0-0.1-0.1-0.2-0.1
			c-0.1,0-0.1,0-0.2,0.1C64.4,38.6,64.4,38.6,64.4,38.7z"/>
		<path class="st9" d="M67.1,39.4c0-0.2,0-0.3,0.1-0.4c0.1-0.1,0.1-0.3,0.2-0.4c0.1-0.1,0.2-0.2,0.4-0.3c0.2-0.1,0.3-0.1,0.5-0.1
			c0.2,0,0.4,0.1,0.6,0.2c0.2,0.1,0.3,0.2,0.4,0.4l-0.4,0.3c0-0.1-0.1-0.1-0.1-0.2c0,0-0.1-0.1-0.2-0.1c-0.1,0-0.1,0-0.2-0.1
			c-0.1,0-0.1,0-0.2,0c-0.1,0-0.2,0-0.3,0.1c-0.1,0-0.2,0.1-0.2,0.2c-0.1,0.1-0.1,0.2-0.1,0.3c0,0.1,0,0.2,0,0.3
			c0,0.1,0,0.2,0.1,0.3c0,0.1,0.1,0.2,0.1,0.3c0.1,0.1,0.1,0.1,0.2,0.2c0.1,0,0.2,0.1,0.3,0.1c0.1,0,0.1,0,0.2,0
			c0.1,0,0.1,0,0.2-0.1c0.1,0,0.1-0.1,0.2-0.1c0,0,0.1-0.1,0.1-0.2l0.4,0.2c0,0.1-0.1,0.2-0.2,0.2c-0.1,0.1-0.2,0.1-0.2,0.2
			c-0.1,0-0.2,0.1-0.3,0.1c-0.1,0-0.2,0-0.3,0c-0.2,0-0.3,0-0.5-0.1c-0.1-0.1-0.3-0.2-0.4-0.3c-0.1-0.1-0.2-0.3-0.2-0.4
			C67.1,39.7,67.1,39.5,67.1,39.4z"/>
		<path class="st9" d="M70.7,40.7c-0.2,0-0.3,0-0.5-0.1c-0.1-0.1-0.3-0.2-0.4-0.3c-0.1-0.1-0.2-0.3-0.2-0.4
			c-0.1-0.2-0.1-0.3-0.1-0.5c0-0.2,0-0.3,0.1-0.5c0.1-0.2,0.1-0.3,0.3-0.4c0.1-0.1,0.2-0.2,0.4-0.3c0.1-0.1,0.3-0.1,0.5-0.1
			c0.2,0,0.3,0,0.5,0.1c0.1,0.1,0.3,0.2,0.4,0.3c0.1,0.1,0.2,0.3,0.2,0.4c0.1,0.2,0.1,0.3,0.1,0.5c0,0.2,0,0.3-0.1,0.5
			c-0.1,0.2-0.1,0.3-0.3,0.4c-0.1,0.1-0.2,0.2-0.4,0.3C71,40.6,70.9,40.7,70.7,40.7z M70,39.4c0,0.1,0,0.2,0,0.3
			c0,0.1,0.1,0.2,0.1,0.3c0.1,0.1,0.1,0.1,0.2,0.2c0.1,0,0.2,0.1,0.3,0.1c0.1,0,0.2,0,0.3-0.1c0.1,0,0.2-0.1,0.2-0.2
			c0.1-0.1,0.1-0.2,0.1-0.3c0-0.1,0-0.2,0-0.3c0-0.1,0-0.2-0.1-0.3c0-0.1-0.1-0.2-0.1-0.3c-0.1-0.1-0.1-0.1-0.2-0.2
			c-0.1,0-0.2-0.1-0.3-0.1c-0.1,0-0.2,0-0.3,0.1c-0.1,0-0.2,0.1-0.2,0.2C70.1,38.9,70,39,70,39.1C70,39.2,70,39.3,70,39.4z"/>
		<path class="st9" d="M72.3,40.6v-2.5h1.7v0.4h-1.2v0.6h1v0.4h-1v1H72.3z"/>
		<path class="st9" d="M74.3,40.6v-2.5h1.7v0.4h-1.2v0.6h1v0.4h-1v1H74.3z"/>
		<path class="st9" d="M78,40.2v0.4h-1.7v-2.5H78v0.4h-1.2v0.6h1v0.4h-1v0.6H78z"/>
		<path class="st9" d="M80.1,40.2v0.4h-1.7v-2.5h1.7v0.4h-1.2v0.6h1v0.4h-1v0.6H80.1z"/>
	</g>
	<path class="st7" d="M12.3,22.4"/>
</g>
</svg>
