<?xml version="1.0" encoding="utf-8"?>
<!-- Generator: Adobe Illustrator 23.0.0, SVG Export Plug-In . SVG Version: 6.00 Build 0)  -->
<svg version="1.1" id="logo-light" xmlns="http://www.w3.org/2000/svg" xmlns:xlink="http://www.w3.org/1999/xlink" x="0px" y="0px"
	 viewBox="0 0 102.1 44.5" style="enable-background:new 0 0 102.1 44.5;" xml:space="preserve">
<style type="text/css">
	.st0{fill:#32378C;}
	.st1{fill:#E20613;}
	.st2{fill:#FDCC39;}
	.st3{fill:#BD5317;}
	.st4{fill:#118537;}
	.st5{fill:#575756;}
</style>
<g>
	<path class="st0" d="M46.7,30.2c0.4,0.8,0.7,1.7,0.7,2.6h-2.2c0-0.3,0-0.5-0.1-0.8c-1,0.7-2.1,1.1-3.4,1.1c-1.6,0-2.9-0.6-4-1.7
		c-1.1-1.1-1.7-2.5-1.7-4c0-1.6,0.6-2.9,1.7-4c1.1-1.1,2.5-1.7,4-1.7c1.6,0,2.9,0.6,4,1.7c1.1,1.1,1.7,2.5,1.7,4
		C47.4,28.5,47.2,29.4,46.7,30.2z M43.4,25.8c-0.5-0.5-1-0.7-1.7-0.7c-0.7,0-1.2,0.2-1.7,0.7c-0.5,0.5-0.7,1-0.7,1.7
		c0,0.7,0.2,1.2,0.7,1.7c0.5,0.5,1,0.7,1.7,0.7c0.4,0,0.7-0.1,1.1-0.2c-0.3-0.1-0.6-0.1-0.9-0.1v-2.2c0.8,0,1.5,0.2,2.2,0.5
		c0-0.1,0-0.2,0-0.3C44.1,26.8,43.9,26.3,43.4,25.8z"/>
	<path class="st0" d="M56.7,28.9c0,1.2-0.4,2.2-1.3,3.1c-0.9,0.9-1.9,1.3-3.1,1.3c-1.2,0-2.2-0.4-3.1-1.3c-0.9-0.9-1.3-1.9-1.3-3.1
		v-6.7h3.3v6.7c0,0.7,0.5,1,1.1,1c0.5,0,1-0.3,1-1v-6.7h3.3V28.9z"/>
	<path class="st0" d="M60.5,32.8h-3.3V22.1h3.3V32.8z"/>
	<path class="st0" d="M68.9,25.5h-2.3v7.4h-3.3v-7.4h-2.3v-3.3h8V25.5z"/>
	<path class="st0" d="M77.3,30.4c-1,1-2.2,1.5-3.5,1.5c-1.4,0-2.6-0.5-3.5-1.5c-1-1-1.5-2.2-1.5-3.5c0-1.4,0.5-2.6,1.5-3.5
		c1-1,2.2-1.5,3.5-1.5c1.4,0,2.6,0.5,3.5,1.5c1,1,1.5,2.2,1.5,3.5C78.8,28.3,78.3,29.4,77.3,30.4z M73.7,25.2
		c-0.9,0-1.7,0.8-1.7,1.7c0,0.9,0.7,1.7,1.7,1.7c0.9,0,1.7-0.8,1.7-1.7C75.4,25.9,74.7,25.2,73.7,25.2z"/>
</g>
<g>
	<path class="st1" d="M44.3,14.4c0.4,0,2.6,0.1,2.6,2.8c0,2.9-3.4,3.2-5.2,3.2c-1.8,0-4.4-0.5-4.4-0.5S37.1,12,37,10.3
		c0,0,1.1-1,4-1c2.8,0,5,0.5,5,2.7C46,14.2,44.3,14.4,44.3,14.4C44.3,14.4,44.3,14.4,44.3,14.4z M40.7,13.9c0,0,0.1,0,0.2,0
		c0.5,0,1.7-0.1,1.7-1.2v-0.1c-0.1-0.8-0.6-0.9-1.1-0.9c-0.6,0-1.1,0.2-1.1,0.2L40.7,13.9z M41.4,18.3c0.8,0,2-0.2,2-1.4
		c0-1-0.8-1.2-1.5-1.2c-0.6,0-1.1,0.1-1.1,0.1v2.5C40.8,18.3,41.1,18.3,41.4,18.3z"/>
	<path class="st1" d="M52.1,10c0,0-0.2,1.5-0.2,3c0,1.5,0.2,3.1,1.3,3.1c1.1,0,1.3-1.4,1.3-2.9c0-1.4-0.2-2.9-0.3-3.1c0,0,0,0,0.2,0
		l3.5-0.3c0,0,0.4,1.8,0.4,3.9c0,3-0.8,6.6-4.9,6.6c-4.6,0-5.4-4.6-5.4-7.6c0-1.5,0.2-2.5,0.2-2.5H52.1z"/>
	<path class="st1" d="M68.7,17.7c0.7,0,1.3-0.2,1.3-0.2v3.3l-1.6,0.1c-2.9,0-3.7-2.5-3.8-3.3c-0.3,0-0.5,0-0.8-0.1l0.1,2.7h-4.1
		L59.5,9.9c0,0,1.3-0.5,5-0.5c3.6,0,5,1.1,5,4c0,1.8-0.6,3.1-2.1,3.8C67.7,17.5,68.2,17.7,68.7,17.7z M64.1,15.4
		c0.6,0,1.8-0.2,1.8-1.8c0-1.5-0.8-1.9-1.5-1.9c-0.3,0-0.6,0.1-0.8,0.1l0.2,3.6C63.8,15.4,63.9,15.4,64.1,15.4z"/>
	<path class="st1" d="M80,15.7v5.1h-3.5l0-0.8c-2.6-0.1-5.9-1-5.9-4.9c0-4.5,3.6-5.4,6.3-5.4c1.2,0,2.3,0.2,2.9,0.3v3.5
		c0,0-1.2-0.2-2.4-0.2c-1.4,0-2.9,0.3-2.9,1.7c0,1.6,1.2,1.8,1.6,1.8h0.1l-0.1-1.1c0.4-0.1,0.9-0.1,1.5-0.1
		C78.8,15.6,80.1,15.7,80,15.7z"/>
	<path class="st1" d="M85.7,13.8l3.6-0.1l-0.1,2.7h-3.5v1.2h4.4l0.2,2.5h-8.4L81.5,9.7h8.4v2.8h-4.2V13.8z"/>
	<path class="st1" d="M100.7,17.7c0.7,0,1.3-0.2,1.3-0.2v3.3l-1.6,0.1c-2.9,0-3.7-2.5-3.8-3.3c-0.3,0-0.5,0-0.8-0.1l0.1,2.7h-4.1
		L91.5,9.9c0,0,1.3-0.5,5-0.5c3.6,0,5,1.1,5,4c0,1.8-0.6,3.1-2.1,3.8C99.7,17.5,100.2,17.7,100.7,17.7z M96.1,15.4
		c0.6,0,1.8-0.2,1.8-1.8c0-1.5-0.8-1.9-1.5-1.9c-0.3,0-0.6,0.1-0.8,0.1l0.2,3.6C95.8,15.4,95.9,15.4,96.1,15.4z"/>
</g>
<g>
	<path class="st2" d="M33.1,39.1H1.6c-2.5-1.3-1.4-5.4-1.4-5.4c0-0.4,0.4-0.8,0.8-0.8h32.7c0.4,0,0.8,0.4,0.8,0.8
		C34.5,33.7,35.7,37.1,33.1,39.1z"/>
	<g>
		<path class="st3" d="M13.8,23.7c-0.3,0-0.5-0.1-0.7-0.2c-0.3-0.1-0.6-0.2-0.8-0.5c-0.2-0.2-0.3-0.5-0.3-0.8c0-0.1,0-0.2,0-0.3
			c0-0.1,0-0.2,0-0.3l0.1-0.7c0,0,0-0.1,0.1-0.1l0.7,0c0.2,0,0.4,0,0.5-0.1c0,0,0.1,0,0.1-0.1c0-0.1,0-0.2,0-0.3l0-0.4l0.2-0.2
			c0,0,0.1-0.1-0.1-0.1L1,19.6c-0.4,0-0.8,0.4-0.8,0.8v3.8c0,0.4,0.4,0.8,0.8,0.8h13c-0.1-0.4-0.2-0.7-0.2-1.3
			C13.9,23.8,13.9,23.7,13.8,23.7z"/>
		<path class="st3" d="M19.5,19.8c0,0.6-0.2,0.9-0.5,1.1l0.2,0.1c0.2,0.1,0.7,0.6,0.6,1.6c0,0.2,0.2,0.9,0.3,1.3
			c0.1,0.2,0.1,0.4,0.2,0.6c0.1,0.1,3.4-0.1,3.4-0.1s0.2,0,0.2,0.4l0,0.3h9.9c0.4,0,0.8-0.4,0.8-0.8v-3.8c0-0.4-0.4-0.8-0.8-0.8
			H19.7C19.7,19.6,19.6,19.6,19.5,19.8z"/>
	</g>
	<path class="st4" d="M33.4,28.6h-2.9c-1.5-0.3-1.6-0.7-3.1-1.1c-1.5-0.3-2.7,0.9-2.9,1.1h0c0,0,0.1-1.3-0.1-1.4
		c-0.1-0.1-1.3,0-1.3,0s0.1-1.7-0.1-1.8c-0.1-0.1-1.9-0.1-2,0c-0.1,0.2,0.1,1.8,0.1,1.8l-2.3,0.1c0,0-0.2,0.6-0.4,0.6
		c-0.2,0.1-0.7-0.1-0.7-0.1s0.2-1.4,0.2-1.5c0-0.1,0.1-1.8,0.1-1.8s-0.5-1.2-0.3-1.4c0.2-0.2,0.3-0.4,0.3-0.4s0.3,0.8,0.8,1.4
		c0.5,0.6,0.9,0.9,0.8,0.5c-0.1-0.4-0.6-1.8-0.6-2.4c0.1-0.6-0.1-0.7-0.2-0.7c-0.1-0.1-0.5,0-0.5,0L18,21.4c0,0-0.6-0.4-0.2-0.8
		c0.4-0.4,0.7-0.5,0.7-0.9c0-0.5-0.2-1-1.1-0.9c-0.9,0.1-0.9,0.9-0.7,1.2c0,0-0.1,0.8-0.2,0.8c-0.1,0-0.8,0.1-1,0.6
		c0,0,0-0.7-0.6-0.6c0,0-0.1-0.2,0.2-0.5c0,0-0.1-0.6-0.6-0.2c-0.1,0-0.1,0.1-0.1,0.2c0,0,0.1,0.9,0,1.1c-0.1,0.1-0.9,0.5-1.5,0.5
		c0,0-0.1,0.6,0.2,0.6c0.3,0.1,0.7,0.3,1.1,0.3c0.4,0,0.6-0.2,0.7,0c0,0.2,0,0.6,0,0.8c0,0.3,0.1,1.7,0.5,1.9c0,0,0.1,2-0.1,2.2
		c-0.2,0.1-0.4,0.1-0.8,0.1c-0.4,0-0.5-0.1-0.8-0.2c-0.3-0.1-1-0.9-1.6-0.9c-0.6,0-0.8-0.2-1.6,0.3c-0.7,0.5-1,0.7-1.6,0.9
		c-0.6,0.2-0.8,0.3-1.6,0.4c-0.6,0.1-1.4,0.3-1.9,0.3H0.9c-0.4,0-0.8,0.4-0.8,0.8v1c0,0.4,0.4,0.8,0.8,0.8h32.5
		c0.4,0,0.8-0.4,0.8-0.8v-1C34.2,29,33.8,28.6,33.4,28.6z"/>
	<path class="st2" d="M17.9,4.7C3.3,4.7,0.3,15.3,0.3,16.3c0,0.9-0.2,1.6,0.6,1.6h32.6c0,0,0.8,0.2,0.8-1.1S32.6,4.7,17.9,4.7z
		 M5.5,12.2c-0.7-0.6,1.3-2,1.3-2S6.2,12.8,5.5,12.2z M11,8.1c-0.3-0.9,2-1.2,2-1.2S11.4,8.9,11,8.1z M13.3,12.2
		c-0.7-0.6,1.3-2,1.3-2S14,12.8,13.3,12.2z M18.1,9c-0.9,0.2-0.2-2.3-0.2-2.3S19,8.8,18.1,9z M21.7,12.2c-0.7,0.6-1.3-2-1.3-2
		S22.4,11.5,21.7,12.2z M24.4,8.1c-0.3,0.9-2-1.2-2-1.2S24.7,7.2,24.4,8.1z M29.6,12.2c-0.7,0.6-1.3-2-1.3-2S30.3,11.5,29.6,12.2z"
		/>
</g>
<g>
	<path class="st5" d="M38.1,39.6v-2.5h1.1c0.1,0,0.2,0,0.3,0.1c0.1,0,0.2,0.1,0.2,0.2c0.1,0.1,0.1,0.2,0.2,0.3
		c0,0.1,0.1,0.2,0.1,0.3c0,0.1,0,0.2-0.1,0.3c0,0.1-0.1,0.2-0.2,0.3c-0.1,0.1-0.1,0.1-0.2,0.2c-0.1,0-0.2,0.1-0.3,0.1h-0.6v0.8H38.1
		z M38.6,38.4h0.6c0.1,0,0.2,0,0.2-0.1c0.1-0.1,0.1-0.2,0.1-0.3c0-0.1,0-0.1,0-0.2c0,0,0-0.1-0.1-0.1c0,0-0.1-0.1-0.1-0.1
		c0,0-0.1,0-0.1,0h-0.5V38.4z"/>
	<path class="st5" d="M40.3,39.6v-2.5h0.5v2.5H40.3z"/>
	<path class="st5" d="M41.1,39.3l1.4-1.7h-1.4v-0.4h1.9v0.4l-1.4,1.7h1.4v0.4h-2V39.3z"/>
	<path class="st5" d="M43.3,39.3l1.4-1.7h-1.4v-0.4h1.9v0.4l-1.4,1.7h1.4v0.4h-2V39.3z"/>
	<path class="st5" d="M46.4,37.2h0.4l0.9,2.5h-0.5L47,39h-0.9l-0.2,0.6h-0.5L46.4,37.2z M46.9,38.7l-0.3-1l-0.4,1H46.9z"/>
	<path class="st5" d="M49.5,37.8C49.4,37.8,49.4,37.8,49.5,37.8c-0.1-0.1-0.2-0.1-0.2-0.1c-0.1,0-0.1,0-0.2-0.1c-0.1,0-0.1,0-0.2,0
		c-0.1,0-0.2,0-0.3,0.1c-0.1,0-0.1,0.1-0.1,0.2c0,0.1,0,0.1,0,0.1c0,0,0.1,0.1,0.1,0.1c0,0,0.1,0,0.2,0.1c0.1,0,0.2,0,0.2,0.1
		c0.1,0,0.2,0.1,0.3,0.1c0.1,0,0.2,0.1,0.3,0.1c0.1,0.1,0.1,0.1,0.2,0.2c0,0.1,0.1,0.2,0.1,0.3c0,0.1,0,0.2-0.1,0.3
		c0,0.1-0.1,0.2-0.2,0.2c-0.1,0.1-0.2,0.1-0.3,0.1c-0.1,0-0.2,0-0.3,0c-0.2,0-0.4,0-0.6-0.1c-0.2-0.1-0.3-0.1-0.5-0.2l0.2-0.4
		c0,0,0.1,0,0.1,0.1c0.1,0,0.1,0.1,0.2,0.1c0.1,0,0.2,0.1,0.2,0.1c0.1,0,0.2,0,0.3,0c0.3,0,0.4-0.1,0.4-0.3c0-0.1,0-0.1,0-0.1
		c0,0-0.1-0.1-0.1-0.1c-0.1,0-0.1-0.1-0.2-0.1c-0.1,0-0.2,0-0.3-0.1c-0.1,0-0.2-0.1-0.3-0.1c-0.1,0-0.2-0.1-0.2-0.1
		c-0.1-0.1-0.1-0.1-0.1-0.2c0-0.1,0-0.2,0-0.2c0-0.1,0-0.2,0.1-0.3c0-0.1,0.1-0.2,0.2-0.2c0.1-0.1,0.2-0.1,0.3-0.1
		c0.1,0,0.2-0.1,0.4-0.1c0.2,0,0.3,0,0.5,0.1c0.1,0.1,0.3,0.1,0.4,0.2L49.5,37.8z"/>
	<path class="st5" d="M50.9,38.9v-0.4H52v0.4H50.9z"/>
	<path class="st5" d="M55,39.4c-0.2,0.2-0.4,0.3-0.7,0.3c-0.2,0-0.3,0-0.5-0.1c-0.1-0.1-0.3-0.2-0.4-0.3c-0.1-0.1-0.2-0.2-0.3-0.4
		c-0.1-0.2-0.1-0.3-0.1-0.5c0-0.2,0-0.3,0.1-0.5c0.1-0.2,0.1-0.3,0.3-0.4c0.1-0.1,0.2-0.2,0.4-0.3c0.1-0.1,0.3-0.1,0.5-0.1
		c0.2,0,0.4,0,0.6,0.1c0.2,0.1,0.3,0.2,0.4,0.4l-0.4,0.3c-0.1-0.1-0.2-0.2-0.3-0.3c-0.1-0.1-0.2-0.1-0.4-0.1c-0.1,0-0.2,0-0.3,0.1
		c-0.1,0-0.2,0.1-0.2,0.2c-0.1,0.1-0.1,0.2-0.1,0.3c0,0.1-0.1,0.2-0.1,0.3c0,0.1,0,0.2,0.1,0.3c0,0.1,0.1,0.2,0.2,0.3
		c0.1,0.1,0.1,0.1,0.2,0.2c0.1,0,0.2,0.1,0.3,0.1c0.2,0,0.5-0.1,0.6-0.3v-0.2h-0.5v-0.4h0.9v1.3H55V39.4z"/>
	<path class="st5" d="M55.8,39.6v-2.5h1.1c0.1,0,0.2,0,0.3,0.1c0.1,0,0.2,0.1,0.2,0.2c0.1,0.1,0.1,0.2,0.2,0.3
		c0,0.1,0.1,0.2,0.1,0.3c0,0.2,0,0.3-0.1,0.4c-0.1,0.1-0.2,0.2-0.3,0.3l0.6,0.9h-0.5l-0.5-0.8h-0.5v0.8H55.8z M56.3,38.4h0.6
		c0,0,0.1,0,0.1,0c0,0,0.1,0,0.1-0.1c0,0,0.1-0.1,0.1-0.1c0,0,0-0.1,0-0.2c0-0.1,0-0.1,0-0.2c0,0,0-0.1-0.1-0.1c0,0-0.1-0.1-0.1-0.1
		c0,0-0.1,0-0.1,0h-0.6V38.4z"/>
	<path class="st5" d="M58.1,39.6v-2.5h0.5v2.5H58.1z"/>
	<path class="st5" d="M59.1,39.6v-2.5h0.5v2.1h1.3v0.4H59.1z"/>
	<path class="st5" d="M61.2,39.6v-2.5h0.5v2.1h1.3v0.4H61.2z"/>
	<path class="st5" d="M65.5,39.6l-0.2-0.2c-0.1,0.1-0.2,0.1-0.3,0.2c-0.1,0-0.2,0.1-0.4,0.1c-0.1,0-0.2,0-0.3-0.1
		c-0.1,0-0.2-0.1-0.3-0.2c-0.1-0.1-0.1-0.1-0.2-0.2c0-0.1-0.1-0.2-0.1-0.3c0-0.1,0-0.1,0-0.2c0-0.1,0.1-0.1,0.1-0.2
		c0-0.1,0.1-0.1,0.1-0.2c0.1,0,0.1-0.1,0.2-0.1c-0.1-0.1-0.2-0.2-0.2-0.3c0-0.1-0.1-0.2-0.1-0.3c0-0.1,0-0.2,0.1-0.2
		c0-0.1,0.1-0.1,0.1-0.2c0.1-0.1,0.1-0.1,0.2-0.1c0.1,0,0.2,0,0.3,0c0.1,0,0.2,0,0.2,0c0.1,0,0.1,0.1,0.2,0.1c0.1,0,0.1,0.1,0.1,0.2
		c0,0.1,0.1,0.1,0.1,0.2c0,0.1,0,0.3-0.1,0.4c-0.1,0.1-0.2,0.2-0.3,0.3l0.5,0.5c0-0.1,0.1-0.2,0.1-0.2c0-0.1,0-0.2,0-0.3h0.4
		c0,0.2,0,0.3-0.1,0.5c0,0.1-0.1,0.3-0.2,0.4l0.5,0.5H65.5z M64.7,39.3c0.1,0,0.3,0,0.4-0.1l-0.6-0.6c-0.1,0.1-0.1,0.1-0.2,0.2
		c0,0.1-0.1,0.1-0.1,0.2c0,0,0,0.1,0,0.1c0,0,0.1,0.1,0.1,0.1c0,0,0.1,0.1,0.1,0.1C64.6,39.3,64.6,39.3,64.7,39.3z M64.4,37.7
		C64.4,37.7,64.4,37.7,64.4,37.7c0,0.1,0,0.1,0,0.1c0,0,0,0,0.1,0.1c0,0,0.1,0.1,0.1,0.1c0.1-0.1,0.2-0.1,0.2-0.2
		c0-0.1,0.1-0.1,0.1-0.2c0-0.1,0-0.1-0.1-0.2c0,0-0.1-0.1-0.2-0.1c-0.1,0-0.1,0-0.2,0.1C64.4,37.6,64.4,37.6,64.4,37.7z"/>
	<path class="st5" d="M67.1,38.4c0-0.2,0-0.3,0.1-0.4c0.1-0.1,0.1-0.3,0.2-0.4c0.1-0.1,0.2-0.2,0.4-0.3c0.2-0.1,0.3-0.1,0.5-0.1
		c0.2,0,0.4,0.1,0.6,0.2c0.2,0.1,0.3,0.2,0.4,0.4l-0.4,0.3c0-0.1-0.1-0.1-0.1-0.2c0,0-0.1-0.1-0.2-0.1c-0.1,0-0.1,0-0.2-0.1
		c-0.1,0-0.1,0-0.2,0c-0.1,0-0.2,0-0.3,0.1c-0.1,0-0.2,0.1-0.2,0.2c-0.1,0.1-0.1,0.2-0.1,0.3c0,0.1,0,0.2,0,0.3c0,0.1,0,0.2,0.1,0.3
		c0,0.1,0.1,0.2,0.1,0.3c0.1,0.1,0.1,0.1,0.2,0.2c0.1,0,0.2,0.1,0.3,0.1c0.1,0,0.1,0,0.2,0c0.1,0,0.1,0,0.2-0.1
		c0.1,0,0.1-0.1,0.2-0.1c0,0,0.1-0.1,0.1-0.2l0.4,0.2c0,0.1-0.1,0.2-0.2,0.2c-0.1,0.1-0.2,0.1-0.2,0.2c-0.1,0-0.2,0.1-0.3,0.1
		c-0.1,0-0.2,0-0.3,0c-0.2,0-0.3,0-0.5-0.1c-0.1-0.1-0.3-0.2-0.4-0.3c-0.1-0.1-0.2-0.3-0.2-0.4C67.1,38.7,67.1,38.5,67.1,38.4z"/>
	<path class="st5" d="M70.7,39.7c-0.2,0-0.3,0-0.5-0.1c-0.1-0.1-0.3-0.2-0.4-0.3c-0.1-0.1-0.2-0.3-0.2-0.4c-0.1-0.2-0.1-0.3-0.1-0.5
		c0-0.2,0-0.3,0.1-0.5c0.1-0.2,0.1-0.3,0.3-0.4c0.1-0.1,0.2-0.2,0.4-0.3c0.1-0.1,0.3-0.1,0.5-0.1c0.2,0,0.3,0,0.5,0.1
		c0.1,0.1,0.3,0.2,0.4,0.3c0.1,0.1,0.2,0.3,0.2,0.4c0.1,0.2,0.1,0.3,0.1,0.5c0,0.2,0,0.3-0.1,0.5c-0.1,0.2-0.1,0.3-0.3,0.4
		c-0.1,0.1-0.2,0.2-0.4,0.3C71,39.6,70.9,39.7,70.7,39.7z M70,38.4c0,0.1,0,0.2,0,0.3c0,0.1,0.1,0.2,0.1,0.3
		c0.1,0.1,0.1,0.1,0.2,0.2c0.1,0,0.2,0.1,0.3,0.1c0.1,0,0.2,0,0.3-0.1c0.1,0,0.2-0.1,0.2-0.2c0.1-0.1,0.1-0.2,0.1-0.3
		c0-0.1,0-0.2,0-0.3c0-0.1,0-0.2-0.1-0.3c0-0.1-0.1-0.2-0.1-0.3c-0.1-0.1-0.1-0.1-0.2-0.2c-0.1,0-0.2-0.1-0.3-0.1
		c-0.1,0-0.2,0-0.3,0.1c-0.1,0-0.2,0.1-0.2,0.2C70.1,37.9,70,38,70,38.1C70,38.2,70,38.3,70,38.4z"/>
	<path class="st5" d="M72.3,39.6v-2.5h1.7v0.4h-1.2v0.6h1v0.4h-1v1H72.3z"/>
	<path class="st5" d="M74.3,39.6v-2.5h1.7v0.4h-1.2v0.6h1v0.4h-1v1H74.3z"/>
	<path class="st5" d="M78,39.2v0.4h-1.7v-2.5H78v0.4h-1.2v0.6h1v0.4h-1v0.6H78z"/>
	<path class="st5" d="M80.1,39.2v0.4h-1.7v-2.5h1.7v0.4h-1.2v0.6h1v0.4h-1v0.6H80.1z"/>
</g>
<path class="st3" d="M12.3,21.4"/>
</svg>
